<?xml version="1.0" encoding="utf-8"?>
<!-- Generator: Adobe Illustrator 19.0.0, SVG Export Plug-In . SVG Version: 6.00 Build 0)  -->
<svg version="1.1" id="图层_1" xmlns="http://www.w3.org/2000/svg" xmlns:xlink="http://www.w3.org/1999/xlink" x="0px" y="0px"
	 viewBox="84 -84 200 200" style="enable-background:new 84 -84 200 200;" xml:space="preserve">
<style type="text/css">
	.st0{fill:#3841DB;}
	.st1{fill:#4C4D4E;}
</style>
<path class="st0" d="M226.5,67.9H159c-6.9,0-11.9-5-11.9-11.9c0-13.8,5.6-26.2,15-35c-3.8-6.3-5.6-12.5-5.6-19.4
	c0-20.6,16.3-37.5,35.6-37.5S227.8-19,227.8,1.6c0,6.9-1.9,13.7-5.6,19.4c9.4,8.7,14.4,21.2,14.4,35
	C237.1,62.9,232.1,67.9,226.5,67.9z M159.6,54.7h65c-0.6-11.2-5.6-21.9-14.4-27.5l-6.3-4.4l5.6-5.6c4.4-4.4,6.3-10,6.3-16.3
	c0-13.1-10.6-24.4-23.1-24.4c-13.1,0-23.1,10.6-23.1,24.4c0,5.6,2.5,11.3,6.3,16.3l5,5.6l-5.6,4.4C165.3,33.5,160.3,44.1,159.6,54.7
	z"/>
<path class="st1" d="M246.5-67.1H132.8c-15,0-27.5,12.5-27.5,27.5V-14h-4.4c-3.8,0-6.3,3.1-6.3,6.3s3.1,6.3,6.3,6.3h5v26.9h-5
	c-3.8,0-6.3,3.1-6.3,6.3s3.1,6.3,6.3,6.3h5v31.9c0,15,12.5,27.5,27.5,27.5h113.1c15,0,27.5-12.5,27.5-27.5V-39.6
	C274-54.6,261.5-67.1,246.5-67.1z M260.9,71.6c0,8.1-6.3,14.4-14.4,14.4H132.8c-8.1,0-14.4-6.3-14.4-14.4V37.9h9.4
	c3.8,0,6.3-3.1,6.3-6.3s-3.1-6.3-6.3-6.3h-9.4V-1.5h9.4c3.8,0,6.3-3.1,6.3-6.3s-3.1-6.3-6.3-6.3h-9.4v-25.6
	c0-8.1,6.3-14.4,14.4-14.4h113.8c8.1,0,14.4,6.3,14.4,14.4V71.6L260.9,71.6z"/>
</svg>
