<?xml version="1.0" standalone="no"?><!DOCTYPE svg PUBLIC "-//W3C//DTD SVG 1.1//EN" "http://www.w3.org/Graphics/SVG/1.1/DTD/svg11.dtd"><svg t="1634281406739" class="icon" viewBox="0 0 1046 1024" version="1.1" xmlns="http://www.w3.org/2000/svg" p-id="3920" xmlns:xlink="http://www.w3.org/1999/xlink" width="204.296875" height="200"><defs><style type="text/css"></style></defs><path d="M520.009627 1024c-250.762936 0-520.009627-61.612515-520.009627-188.534296 0-61.612515 57.299639-110.286402 171.898917-144.78941a46.209386 46.209386 0 0 1 25.877256 88.722021c-82.56077 24.645006-104.12515 51.138387-105.3574 56.683514 6.161252 25.877256 146.637786 95.499398 427.590854 95.499398s421.429603-69.622142 427.590854-96.115523c0-4.929001-22.796631-31.422383-105.973526-56.067389a46.209386 46.209386 0 0 1 25.877257-88.722021c113.983153 34.503008 171.898917 83.176895 171.898917 144.78941 0.616125 129.386282-268.630566 188.534296-519.393502 188.534296z" fill="#4C4D4E" p-id="3921"></path><path d="M520.009627 834.233454a46.209386 46.209386 0 0 1-25.261131-7.393502c-13.554753-8.625752-329.01083-218.108303-329.010831-472.567991a354.271961 354.271961 0 0 1 708.543923 0c0 254.459687-315.456077 463.942238-329.01083 472.567991a46.209386 46.209386 0 0 1-25.261131 7.393502z m0-734.42118a258.772563 258.772563 0 0 0-261.853189 254.459687c0 168.202166 191.614922 325.314079 261.853189 377.068593 70.238267-51.754513 261.853189-208.866426 261.853189-377.068593A258.772563 258.772563 0 0 0 520.009627 99.812274z" fill="#4C4D4E" p-id="3922"></path><path d="M520.009627 526.170878a164.505415 164.505415 0 1 1 162.65704-164.505415 164.505415 164.505415 0 0 1-162.65704 164.505415z m0-236.592057a72.086643 72.086643 0 1 0 72.086643 72.086642 72.086643 72.086643 0 0 0-72.086643-72.086642z" fill="#3841DB" p-id="3923"></path></svg>