<?xml version="1.0" standalone="no"?><!DOCTYPE svg PUBLIC "-//W3C//DTD SVG 1.1//EN" "http://www.w3.org/Graphics/SVG/1.1/DTD/svg11.dtd"><svg t="1634721854429" class="icon" viewBox="0 0 1028 1024" version="1.1" xmlns="http://www.w3.org/2000/svg" p-id="4522" xmlns:xlink="http://www.w3.org/1999/xlink" width="200.78125" height="200"><defs><style type="text/css"></style></defs><path d="M402.402103 0.04723H67.381886A67.381886 67.381886 0 0 0 0 67.429116v335.020218a66.752149 66.752149 0 0 0 67.381886 66.752148h335.020217a66.122411 66.122411 0 0 0 66.752149-66.752148V67.429116A66.752149 66.752149 0 0 0 402.402103 0.04723zM962.868256 0.04723H627.848039a67.381886 67.381886 0 0 0-69.900835 67.381886v335.020218a66.752149 66.752149 0 0 0 67.381886 66.752148h335.020217a66.752149 66.752149 0 0 0 66.752149-66.752148V67.429116A67.381886 67.381886 0 0 0 962.868256 0.04723zM402.402103 554.845748H67.381886A66.752149 66.752149 0 0 0 0 621.597897v335.020217a67.381886 67.381886 0 0 0 67.381886 67.381886h335.020217a66.752149 66.752149 0 0 0 66.752149-67.381886V621.597897a66.122411 66.122411 0 0 0-66.752149-66.752149zM962.868256 554.845748H627.848039a66.752149 66.752149 0 0 0-69.900835 66.752149v335.020217a67.381886 67.381886 0 0 0 67.381886 67.381886h335.020217a67.381886 67.381886 0 0 0 66.752149-67.381886V621.597897a66.752149 66.752149 0 0 0-64.2332-66.752149z" fill="#FC952A" p-id="4523"></path></svg>