<?xml version="1.0" standalone="no"?><!DOCTYPE svg PUBLIC "-//W3C//DTD SVG 1.1//EN" "http://www.w3.org/Graphics/SVG/1.1/DTD/svg11.dtd"><svg t="1635154414093" class="icon" viewBox="0 0 1026 1024" version="1.1" xmlns="http://www.w3.org/2000/svg" p-id="5042" xmlns:xlink="http://www.w3.org/1999/xlink" width="64.125" height="64"><defs><style type="text/css"></style></defs><path d="M45.348571 653.897143l324.022858 324.022857a155.794286 155.794286 0 0 0 219.428571 0l392.045714-389.12a152.868571 152.868571 0 0 0 46.08-109.714286V155.062857A155.794286 155.794286 0 0 0 871.131429 0h-329.142858a155.062857 155.062857 0 0 0-109.714285 45.348571L45.348571 433.737143a155.794286 155.794286 0 0 0 0 220.16z m51.931429-168.228572l388.388571-389.12a83.382857 83.382857 0 0 1 58.514286-24.137142h324.022857A81.92 81.92 0 0 1 950.857143 154.331429v324.022857a83.382857 83.382857 0 0 1-24.137143 58.514285l-389.12 388.388572a81.92 81.92 0 0 1-116.297143 0L97.28 601.965714a81.92 81.92 0 0 1 0-116.297143z" p-id="5043"></path><path d="M661.942857 218.697143a146.285714 146.285714 0 1 0 146.285714 146.285714 146.285714 146.285714 0 0 0-146.285714-146.285714z m57.051429 202.605714a80.457143 80.457143 0 0 1-114.102857 0 80.457143 80.457143 0 1 1 114.102857 0z" p-id="5044"></path></svg>