<?xml version="1.0" encoding="utf-8"?>
<!-- Generator: Adobe Illustrator 19.0.0, SVG Export Plug-In . SVG Version: 6.00 Build 0)  -->
<svg version="1.1" id="图层_1" xmlns="http://www.w3.org/2000/svg" xmlns:xlink="http://www.w3.org/1999/xlink" x="0px" y="0px"
	 viewBox="84 -84 200 200" style="enable-background:new 84 -84 200 200;" xml:space="preserve">
<style type="text/css">
	.st0{fill:#4C4D4E;}
	.st1{fill:#3841DB;}
</style>
<path class="st0" d="M120.9-67.1h126.9c10.6,0,19.4,8.8,19.4,19.4V79.1c0,10.6-8.8,19.4-19.4,19.4H120.9c-10.6,0-19.4-8.8-19.4-19.4
	V-47.1C100.9-58.4,109.6-67.1,120.9-67.1z M120.9-54c-3.8,0-6.3,3.1-6.3,6.3V79.1c0,3.8,3.1,6.3,6.3,6.3h126.9
	c3.8,0,6.3-3.1,6.3-6.3V-47.1c0-3.8-3.1-6.3-6.3-6.3L120.9-54z M151.5,39.7L164,27.2l9.4,9.4l-12.5,12.5l12.5,12.5L164,71
	l-12.5-12.5L139,71l-9.4-9.4l12.5-12.5l-12.5-12.5l9.4-9.4L151.5,39.7z M192.8-23.4h48.1v13.1h-48.1L192.8-23.4L192.8-23.4z"/>
<path class="st1" d="M144.6-20.9v-17.5h13.1v17.5h17.5v13.1h-17.5V9.8h-13.1V-7.8h-17.5v-13.1H144.6z M192.8,31h48.1v13.1h-48.1
	L192.8,31L192.8,31z M192.8,57.3h48.1v13.1h-48.1L192.8,57.3L192.8,57.3z"/>
</svg>
