<?xml version="1.0" standalone="no"?><!DOCTYPE svg PUBLIC "-//W3C//DTD SVG 1.1//EN" "http://www.w3.org/Graphics/SVG/1.1/DTD/svg11.dtd"><svg t="1635317093141" class="icon" viewBox="0 0 1024 1024" version="1.1" xmlns="http://www.w3.org/2000/svg" p-id="9022" xmlns:xlink="http://www.w3.org/1999/xlink" width="64" height="64"><defs><style type="text/css"></style></defs><path d="M736.075294 318.644706a80.414118 80.414118 0 0 1 0 116.254118l-277.383529 269.251764a105.712941 105.712941 0 0 1-41.86353 24.997647l-80.715294 26.202353a40.056471 40.056471 0 0 1-49.995294-24.395294 36.743529 36.743529 0 0 1 0-24.094118l27.105882-78.305882a102.098824 102.098824 0 0 1 25.901177-40.658823l277.082353-269.251765a86.437647 86.437647 0 0 1 120.470588 0z m-369.543529 288.828235l-3.614118 3.614118a71.68 71.68 0 0 0-17.769412 27.708235l-26.804706 78.305882a5.421176 5.421176 0 0 0 3.614118 6.927059 3.915294 3.915294 0 0 0 3.614118 0l80.715294-25.901176a81.618824 81.618824 0 0 0 28.611765-17.167059l3.614117-3.614118z m251.482353-243.952941L391.529412 584.282353l71.981176 69.571765 227.087059-220.461177z m24.094117-23.190588l71.68 69.571764a48.489412 48.489412 0 0 0-1.505882-68.065882 51.802353 51.802353 0 0 0-70.174118-1.505882z" p-id="9023"></path></svg>