<?xml version="1.0" standalone="no"?><!DOCTYPE svg PUBLIC "-//W3C//DTD SVG 1.1//EN" "http://www.w3.org/Graphics/SVG/1.1/DTD/svg11.dtd"><svg t="1709881279799" class="icon" viewBox="0 0 1024 1024" version="1.1" xmlns="http://www.w3.org/2000/svg" p-id="18220" xmlns:xlink="http://www.w3.org/1999/xlink" width="128" height="128"><path d="M153.6 307.2h716.8v102.4H153.6z" fill="#D8D8D8" p-id="18221"></path><path d="M896 486.4v-179.2c0-70.692-57.308-128-128-128H256c-70.692 0-128 57.308-128 128v405.224c0 70.694 57.308 128 128 128h614.4c14.14 0 25.6-11.46 25.6-25.6 0-14.138-11.46-25.6-25.6-25.6H256c-42.416 0-76.8-34.384-76.8-76.8V307.2c0-42.416 34.384-76.8 76.8-76.8h512c42.416 0 76.8 34.384 76.8 76.8v179.2c0 14.14 11.46 25.6 25.6 25.6s25.6-11.46 25.6-25.6z" fill="#979797" p-id="18222"></path><path d="M153.6 426.406h716.8v-51.2H153.6z" fill="#979797" p-id="18223"></path><path d="M512 695.614c-14.14 0-25.6 11.46-25.6 25.6s11.46 25.6 25.6 25.6h333.096c22.714 0 34.178-27.384 18.236-43.566l-105.232-106.814c-9.92-10.072-26.13-10.194-36.2-0.27-10.074 9.922-10.194 26.13-0.272 36.202l62.31 63.248H512z" fill="#D8D8D8" p-id="18224"></path></svg>