<?xml version="1.0" standalone="no"?><!DOCTYPE svg PUBLIC "-//W3C//DTD SVG 1.1//EN" "http://www.w3.org/Graphics/SVG/1.1/DTD/svg11.dtd"><svg t="1648104818347" class="icon" viewBox="0 0 1024 1024" version="1.1" xmlns="http://www.w3.org/2000/svg" p-id="7114" xmlns:xlink="http://www.w3.org/1999/xlink" width="200" height="200"><defs><style type="text/css">@font-face { font-family: feedback-iconfont; src: url("//at.alicdn.com/t/font_1031158_u69w8yhxdu.woff2?t=1630033759944") format("woff2"), url("//at.alicdn.com/t/font_1031158_u69w8yhxdu.woff?t=1630033759944") format("woff"), url("//at.alicdn.com/t/font_1031158_u69w8yhxdu.ttf?t=1630033759944") format("truetype"); }
</style></defs><path d="M646.819659 435.206379h176.211425a39.252908 39.252908 0 1 0 0-78.079155h-176.211425V181.342462a39.252908 39.252908 0 1 0-78.505816 0v175.784762H390.822433a39.252908 39.252908 0 1 0 0 78.079155h176.211424v175.784762a39.252908 39.252908 0 0 0 78.505816 0z" fill="#3841DB" p-id="7115"></path><path d="M950.176373 0.011093h-725.325476a73.385872 73.385872 0 0 0-74.665857 73.812534v143.358447H73.812534A74.239196 74.239196 0 0 0 0 290.994608v659.192858A73.812534 73.812534 0 0 0 73.812534 1024h658.339534a73.812534 73.812534 0 0 0 73.812534-73.812534v-74.665857h143.785109A73.812534 73.812534 0 0 0 1023.988907 801.709075V73.823627A73.812534 73.812534 0 0 0 950.176373 0.011093z m-218.024305 950.176373H73.812534V290.994608h76.372506v548.260727a36.692936 36.692936 0 0 0 36.692935 36.692936h545.274093zM223.570911 73.396965h725.325476v728.31211h-725.325476z" fill="#4C4D4E" p-id="7116"></path></svg>