<?xml version="1.0" standalone="no"?><!DOCTYPE svg PUBLIC "-//W3C//DTD SVG 1.1//EN" "http://www.w3.org/Graphics/SVG/1.1/DTD/svg11.dtd"><svg t="1679618541928" class="icon" viewBox="0 0 1024 1024" version="1.1" xmlns="http://www.w3.org/2000/svg" p-id="3993" xmlns:xlink="http://www.w3.org/1999/xlink" width="64" height="64"><path d="M672 712v40H304a32 32 0 0 1-32-32V312h40v400H672zM595.104 192a32 32 0 0 1 22.592 9.344l124.896 124.672a32 32 0 0 1 9.408 22.656v291.36a32 32 0 0 1-32 32H384a32 32 0 0 1-32-32V224a32 32 0 0 1 32-32L595.104 192zM552 232h-160v400h320v-240h-160v-160z m40 0V352h120L592 232z" p-id="3994"></path></svg>