<?xml version="1.0" encoding="utf-8"?>
<!-- Generator: Adobe Illustrator 19.0.0, SVG Export Plug-In . SVG Version: 6.00 Build 0)  -->
<svg version="1.1" id="图层_1" xmlns="http://www.w3.org/2000/svg" xmlns:xlink="http://www.w3.org/1999/xlink" x="0px" y="0px"
	 viewBox="84 -84 200 200" style="enable-background:new 84 -84 200 200;" xml:space="preserve">
<style type="text/css">
	.st0{fill:#3841DB;}
	.st1{fill:#4C4D4E;}
</style>
<g>
	<path class="st0" d="M149-19.6h56.9c3.8,0,6.9,3.1,6.9,6.9s-3.1,6.9-6.9,6.9H149c-3.8,0-6.9-3.1-6.9-6.9S145.3-19.6,149-19.6z
		 M149,9.1h56.9c3.8,0,6.9,3.1,6.9,6.9s-3.1,6.9-6.9,6.9H149c-3.8,0-6.9-3.1-6.9-6.9S145.3,9.1,149,9.1z"/>
	<path class="st1" d="M127.8-55.3h100c3.8,0,6.9,3.1,6.9,6.9v76.3c0,3.8,3.1,6.9,6.9,6.9s6.9-3.1,6.9-6.9v-76.3
		c0-11.9-9.4-21.3-21.2-21.3h-99.4c-11.9,0-21.3,9.4-21.3,21.3V79.8c0,11.9,9.4,21.2,21.3,21.2h38.1c3.8,0,6.9-3.1,6.9-6.9
		s-3.1-6.9-6.9-6.9h-38.1c-3.8,0-6.9-3.1-6.9-6.9V-47.8C120.3-52.1,123.4-55.2,127.8-55.3z"/>
	<path class="st1" d="M254.6,65.4L244,54.7c-2.5-2.5-7.5-2.5-10,0c-2.5,2.5-2.5,7.5,0,10l3.1,3.1H194c-3.8,0-6.9,3.1-6.9,6.9
		c0,3.8,3.1,6.9,6.9,6.9h43.1L234,86c-2.5,2.5-2.5,7.5,0,10s7.5,2.5,10,0l15.6-15.6c2.5-2.5,2.5-7.5,0-10L254.6,65.4L254.6,65.4z"/>
</g>
</svg>
