<?xml version="1.0" standalone="no"?><!DOCTYPE svg PUBLIC "-//W3C//DTD SVG 1.1//EN" "http://www.w3.org/Graphics/SVG/1.1/DTD/svg11.dtd"><svg t="1668476403780" class="icon" viewBox="0 0 1024 1024" version="1.1" xmlns="http://www.w3.org/2000/svg" p-id="11429" xmlns:xlink="http://www.w3.org/1999/xlink" width="200" height="200"><path d="M892.342857 234.057143h-95.085714V131.657143c0-21.942857-14.628571-36.571429-36.571429-36.571429H131.657143c-21.942857 0-36.571429 14.628571-36.571429 36.571429v621.714286c0 21.942857 14.628571 36.571429 36.571429 36.571428h95.085714v95.085714c0 21.942857 14.628571 36.571429 36.571429 36.571429h621.714285c21.942857 0 36.571429-14.628571 36.571429-36.571429V263.314286c0-14.628571-14.628571-29.257143-29.257143-29.257143zM285.257143 446.171429c0-14.628571 14.628571-21.942857 21.942857-21.942858h109.714286V307.2c0-14.628571 14.628571-21.942857 21.942857-21.942857s36.571429 7.314286 36.571428 21.942857v109.714286H585.142857c14.628571 0 21.942857 14.628571 21.942857 21.942857s-7.314286 36.571429-21.942857 36.571428H475.428571V585.142857c0 14.628571-14.628571 21.942857-21.942857 21.942857s-29.257143-7.314286-29.257143-21.942857V475.428571H307.2c-14.628571 0-21.942857-14.628571-21.942857-29.257142z m570.514286 409.6H299.885714v-58.514286h453.485715c21.942857 0 36.571429-14.628571 36.571428-36.571429V299.885714h58.514286v555.885715z" p-id="11430"></path></svg>