<?xml version="1.0" standalone="no"?><!DOCTYPE svg PUBLIC "-//W3C//DTD SVG 1.1//EN" "http://www.w3.org/Graphics/SVG/1.1/DTD/svg11.dtd"><svg t="1630389307074" class="icon" viewBox="0 0 1024 1024" version="1.1" xmlns="http://www.w3.org/2000/svg" p-id="1829" xmlns:xlink="http://www.w3.org/1999/xlink" width="64" height="64"><defs><style type="text/css"></style></defs><path d="M614.08 346.88h-264c-18.24 0-32.96 14.72-32.96 32.96s14.72 32.96 32.96 32.96h264c18.24 0 32.96-14.72 32.96-32.96s-14.72-32.96-32.96-32.96z m-186.88 495.36h-176c-18.24 0-32.96-14.72-32.96-32.96V214.72c0-18.24 14.72-32.96 32.96-32.96H713.6c18.24 0 32.96 14.72 32.96 32.96v352.32c0 18.24 14.72 32.96 32.96 32.96s32.96-14.72 32.96-32.96V214.72c0-54.4-44.48-99.2-99.2-99.2H250.88c-54.4 0-99.2 44.48-99.2 99.2v594.24c0 54.4 44.48 99.2 99.2 99.2h176c18.24 0 32.96-14.72 32.96-32.96s-14.4-32.96-32.64-32.96z m186.88-363.2h-264c-18.24 0-32.96 14.72-32.96 32.96s14.72 32.96 32.96 32.96h264c18.24 0 32.96-14.72 32.96-32.96s-14.72-32.96-32.96-32.96z m248.32 284.8l-71.68-71.68c-12.8-12.8-33.6-12.8-46.72 0-13.12 12.8-13.12 33.92 0 46.72l15.36 15.04h-200.32c-18.24 0-32.96 14.72-32.96 32.96s14.72 32.96 32.96 32.96h200.32l-15.36 15.04c-13.12 12.8-13.12 33.92 0 46.72 12.8 12.8 33.92 12.8 46.72 0l71.68-71.68c12.8-12.16 12.8-33.28 0-46.08z" p-id="1830"></path></svg>