<?xml version="1.0" encoding="utf-8"?>
<!-- Generator: Adobe Illustrator 19.0.0, SVG Export Plug-In . SVG Version: 6.00 Build 0)  -->
<svg version="1.1" id="图层_1" xmlns="http://www.w3.org/2000/svg" xmlns:xlink="http://www.w3.org/1999/xlink" x="0px" y="0px"
	 viewBox="0 0 32 32" style="enable-background:new 0 0 32 32;" xml:space="preserve">
<style type="text/css">
	.st0{fill:#4C4D4E;}
	.st1{fill:#3841DB;}
</style>
<g id="XMLID_2_">
	<path id="XMLID_12_" class="st0" d="M24.4,4.8h-1V4c0-1.2-1-2.2-2.2-2.2H10.7c-1.2,0-2.2,1-2.2,2.2v0.8h-1C5.1,4.8,3,6.8,3,9.3
		v16.4c0,2.5,2,4.5,4.5,4.5h16.9c2.5,0,4.5-2,4.5-4.5V9.3C29,6.8,26.9,4.8,24.4,4.8z M10.7,3.8h10.5c0.1,0,0.2,0.1,0.2,0.2v0.8v2.7
		c0,0.2-0.1,0.3-0.3,0.3H10.8c-0.1,0-0.3-0.1-0.3-0.3V4C10.5,3.9,10.6,3.8,10.7,3.8z M27,25.7c0,1.4-1.1,2.5-2.5,2.5H7.6
		c-1.4,0-2.5-1.1-2.5-2.5V9.3c0-1.4,1.1-2.5,2.5-2.5h0.9v0.7l0,0v0.1c0,1.1,0.8,2,1.8,2.2c0.2,0,0.3,0.1,0.5,0.1h10.3
		c0.2,0,0.3,0,0.5-0.1c1-0.2,1.8-1.1,1.8-2.2V7.5V6.8h1c1.4,0,2.5,1.1,2.5,2.5v16.4H27z"/>
	<g id="XMLID_1_">
		<path id="XMLID_4_" class="st1" d="M21,19.6H11c-0.6,0-1.1,0.5-1.1,1.1s0.5,1.1,1.1,1.1h10c0.6,0,1.1-0.5,1.1-1.1
			S21.6,19.6,21,19.6z"/>
		<path id="XMLID_5_" class="st1" d="M11,16.2h10c0.6,0,1.1-0.5,1.1-1.1S21.6,14,21,14H11c-0.6,0-1.1,0.5-1.1,1.1S10.4,16.2,11,16.2
			z"/>
	</g>
</g>
</svg>
