<?xml version="1.0" standalone="no"?><!DOCTYPE svg PUBLIC "-//W3C//DTD SVG 1.1//EN" "http://www.w3.org/Graphics/SVG/1.1/DTD/svg11.dtd"><svg t="1709275218514" class="icon" viewBox="0 0 1024 1024" version="1.1" xmlns="http://www.w3.org/2000/svg" p-id="12074" xmlns:xlink="http://www.w3.org/1999/xlink" width="64" height="64"><path d="M784.22016 758.3744c4.3008 0 0 0.8192 0 4.17792v-4.17792z m-0.86016 0v-252.39552a37.64224 37.64224 0 1 1 75.24352 0v256.57344c0 40.30464-34.6112 71.0656-75.24352 71.0656H256.6144c-40.67328 0-75.28448-30.72-75.28448-71.0656V227.45088c0-40.30464 34.6112-71.0656 75.28448-71.0656h343.98208a37.64224 37.64224 0 0 1 0 75.24352H256.6144v526.7456h526.7456z m-524.41088 0v4.17792c0-3.35872-4.3008-4.17792 0-4.17792z m0-530.92352v4.17792c-4.3008 0 0-0.8192 0-4.17792z m287.62112 331.776a37.64224 37.64224 0 0 1-53.20704-53.20704l301.01504-301.01504a37.64224 37.64224 0 0 1 53.20704 53.248l-301.01504 300.97408z" fill="#707070" p-id="12075"></path></svg>