<?xml version="1.0" standalone="no"?><!DOCTYPE svg PUBLIC "-//W3C//DTD SVG 1.1//EN" "http://www.w3.org/Graphics/SVG/1.1/DTD/svg11.dtd"><svg t="1709188684406" class="icon" viewBox="0 0 1024 1024" version="1.1" xmlns="http://www.w3.org/2000/svg" p-id="8791" xmlns:xlink="http://www.w3.org/1999/xlink" width="64" height="64"><path d="M844.8 1024h-665.6C81.92 1024 0 942.08 0 844.8v-665.6C0 81.92 81.92 0 179.2 0h665.6C942.08 0 1024 81.92 1024 179.2v665.6c0 97.28-81.92 179.2-179.2 179.2z" fill="#006DFF" p-id="8792"></path><path d="M593.92 1024v-353.28h133.12l20.48-153.6h-153.6V419.84c0-46.08 10.24-76.8 76.8-76.8h81.92V204.8c-15.36 0-61.44-5.12-117.76-5.12-117.76 0-199.68 71.68-199.68 204.8v112.64H302.08v153.6h133.12V1024h158.72z" fill="#FFFFFF" p-id="8793"></path></svg>