<?xml version="1.0" encoding="utf-8"?>
<!-- Generator: Adobe Illustrator 19.0.0, SVG Export Plug-In . SVG Version: 6.00 Build 0)  -->
<svg version="1.1" id="图层_1" xmlns="http://www.w3.org/2000/svg" xmlns:xlink="http://www.w3.org/1999/xlink" x="0px" y="0px"
	 viewBox="0 0 32 32" style="enable-background:new 0 0 32 32;" xml:space="preserve">
<style type="text/css">
	.st0{fill:#3841DB;}
	.st1{fill:#4C4D4E;}
</style>
<path id="XMLID_917_" class="st0" d="M21,15.1H11c-0.6,0-1-0.4-1-1s0.4-1,1-1h10c0.6,0,1,0.4,1,1S21.5,15.1,21,15.1z"/>
<g id="XMLID_3_">
	<polygon id="XMLID_4_" class="st1" points="15.3,19.9 15.3,18.6 10.7,18.6 10.7,26.1 12.2,26.1 12.2,23.1 14.8,23.1 14.8,21.8 
		12.2,21.8 12.2,19.9 	"/>
	<path id="XMLID_18_" class="st1" d="M20.7,22.2L20.7,22.2c0.6-0.3,1-1,1-1.7c0-1.4-1.2-1.8-2.7-1.8h-2.5v7.5h2.7
		c1.6,0,2.9-0.7,2.9-2.2C22.1,22.9,21.5,22.3,20.7,22.2z M18.1,19.8H19c0.9,0,1.3,0.3,1.3,0.9s-0.4,1-1.4,1H18v-1.9H18.1z M19.1,25
		h-1v-2.2h1c1,0,1.6,0.3,1.6,1C20.7,24.6,20.1,25,19.1,25z"/>
	<path id="XMLID_23_" class="st1" d="M26.6,18.6h-1.8l-2.4,7.5H24l0.5-1.9h2.4l0.5,1.9H29L26.6,18.6z M24.8,23l0.2-0.8
		c0.2-0.8,0.4-1.6,0.6-2.4h0.1c0.2,0.8,0.4,1.7,0.6,2.4l0.2,0.8H24.8z"/>
	<path id="XMLID_26_" class="st1" d="M15.9,28.2H7.5c-1.4,0-2.5-1.1-2.5-2.5V9.3c0-1.4,1.1-2.5,2.5-2.5h1v0.7v0.1
		c0,1.1,0.8,2,1.8,2.2c0.2,0,0.3,0.1,0.5,0.1h10.3c0.2,0,0.3,0,0.5-0.1c1-0.2,1.8-1.1,1.8-2.2V7.5V6.8h1c1.4,0,2.5,1.1,2.5,2.5v6
		l0,0l0,0c0,0.6,0.4,1,1,1s1-0.4,1-1l0,0l0,0v-6c0-2.5-2-4.5-4.5-4.5h-1V4c0-1.2-1-2.2-2.2-2.2H10.7c-1.2,0-2.2,1-2.2,2.2v0.8h-1
		C5,4.8,3,6.8,3,9.3v16.4c0,2.5,2,4.5,4.5,4.5h8.4c0.6,0,1-0.4,1-1C16.9,28.7,16.5,28.2,15.9,28.2z M10.5,4c0-0.1,0.1-0.2,0.2-0.2
		h10.5c0.1,0,0.2,0.1,0.2,0.2v0.8v2.7c0,0.2-0.1,0.3-0.3,0.3H10.8c-0.1,0-0.3-0.1-0.3-0.3L10.5,4z"/>
</g>
</svg>
