<?xml version="1.0" standalone="no"?><!DOCTYPE svg PUBLIC "-//W3C//DTD SVG 1.1//EN" "http://www.w3.org/Graphics/SVG/1.1/DTD/svg11.dtd"><svg t="1678947143967" class="icon" viewBox="0 0 1024 1024" version="1.1" xmlns="http://www.w3.org/2000/svg" p-id="3995" xmlns:xlink="http://www.w3.org/1999/xlink" width="200" height="200"><path d="M587.776 508.8l-120.48-87.168a3.904 3.904 0 0 0-6.24 3.2v22.944a15.68 15.68 0 0 0 6.464 12.704L538.752 512l-71.232 51.52a15.616 15.616 0 0 0-6.464 12.704v22.944c0 3.2 3.616 5.056 6.24 3.2l120.48-87.2a3.936 3.936 0 0 0 0-6.336zM512 292.608a219.456 219.456 0 1 0 0 438.88 219.456 219.456 0 0 0 0-438.88z m0 401.6a182.24 182.24 0 0 1 0-364.384 182.24 182.24 0 0 1 0 364.416z" fill="#4E5969" p-id="3996"></path></svg>