<?xml version="1.0" standalone="no"?><!DOCTYPE svg PUBLIC "-//W3C//DTD SVG 1.1//EN" "http://www.w3.org/Graphics/SVG/1.1/DTD/svg11.dtd"><svg t="1678701798849" class="icon" viewBox="0 0 1024 1024" version="1.1" xmlns="http://www.w3.org/2000/svg" p-id="2716" xmlns:xlink="http://www.w3.org/1999/xlink" width="200" height="200"><path d="M512 224a288 288 0 1 1 0 576 288 288 0 0 1 0-576z m0 52.352a235.648 235.648 0 1 0 0 471.296 235.648 235.648 0 0 0 0-471.296z m13.12 340.384a13.12 13.12 0 0 1 13.056 13.088v26.176a13.12 13.12 0 0 1-13.088 13.12h-26.176a13.12 13.12 0 0 1-13.12-13.12v-26.176a13.12 13.12 0 0 1 13.12-13.12h26.176z m-16.832-261.824c31.104 0 56.96 7.52 77.568 22.592 20.576 15.104 30.88 37.44 30.88 67.008 0 18.144-4.48 33.44-13.44 45.856-5.216 7.52-15.296 17.152-30.144 28.896l-14.688 11.52c-8 6.272-13.28 13.6-15.904 21.952a70.848 70.848 0 0 0-1.856 12.768 13.12 13.12 0 0 1-13.056 11.936h-29.312a13.12 13.12 0 0 1-13.024-14.272c1.696-18.24 3.488-29.76 5.44-34.592 3.552-9.024 12.8-19.36 27.648-31.104l15.072-11.936c4.96-3.744 30.528-21.76 30.528-37.664 0-15.936-2.784-21.792-10.784-30.528-8-8.736-25.984-11.552-42.24-11.552-16 0-29.632 4.224-36.32 14.976a75.648 75.648 0 0 0-7.424 15.68 54.72 54.72 0 0 0-1.92 8.064 13.12 13.12 0 0 1-12.896 10.88h-30.816a13.12 13.12 0 0 1-13.024-14.56c0.32-2.944 0.672-5.376 1.024-7.296 5.12-28.416 18.016-49.344 38.784-62.72 16.256-10.592 36.224-15.904 59.904-15.904z" p-id="2717"></path></svg>