<?xml version="1.0" standalone="no"?><!DOCTYPE svg PUBLIC "-//W3C//DTD SVG 1.1//EN" "http://www.w3.org/Graphics/SVG/1.1/DTD/svg11.dtd"><svg t="1679965636156" class="icon" viewBox="0 0 1024 1024" version="1.1" xmlns="http://www.w3.org/2000/svg" p-id="4086" xmlns:xlink="http://www.w3.org/1999/xlink" width="200" height="200"><path d="M512 0C226.7648 0 0 226.7648 0 512s226.7648 512 512 512 512-226.7648 512-512S797.2352 0 512 0z m219.4432 548.5568h-182.8864v182.8864c0 21.9136-14.592 36.5568-36.5568 36.5568s-36.5568-14.6432-36.5568-36.5568v-182.8864H292.5568C270.6432 548.5568 256 534.016 256 512s14.6432-36.5568 36.5568-36.5568h182.8864V292.5568C475.4432 270.6432 489.984 256 512 256s36.5568 14.6432 36.5568 36.5568v182.8864h182.8864c21.9136 0 36.5568 14.592 36.5568 36.5568s-14.6432 36.5568-36.5568 36.5568z" fill="#1F5FFF" p-id="4087"></path></svg>