<?xml version="1.0" standalone="no"?><!DOCTYPE svg PUBLIC "-//W3C//DTD SVG 1.1//EN" "http://www.w3.org/Graphics/SVG/1.1/DTD/svg11.dtd"><svg t="1641968657635" class="icon" viewBox="0 0 1024 1024" version="1.1" xmlns="http://www.w3.org/2000/svg" p-id="5061" xmlns:xlink="http://www.w3.org/1999/xlink" width="200" height="200"><defs><style type="text/css"></style></defs><path d="M493.653333 1024a490.666667 490.666667 0 1 1 0-981.333333 42.666667 42.666667 0 0 1 42.666667 42.666666v405.333334h407.466667a42.666667 42.666667 0 0 1 42.666666 42.666666A493.226667 493.226667 0 0 1 493.653333 1024z m-42.666666-892.586667a404.48 404.48 0 1 0 448 444.16h-405.333334a42.666667 42.666667 0 0 1-42.666666-42.666666z" fill="#4C4D4E" p-id="5062"></path><path d="M991.573333 444.16H614.4a33.28 33.28 0 0 1-32.426667-32.426667V32.426667A32.853333 32.853333 0 0 1 614.4 0 411.733333 411.733333 0 0 1 1024 413.866667a31.573333 31.573333 0 0 1-32.426667 30.293333z m-345.173333-64.853333h310.613333a349.44 349.44 0 0 0-310.613333-314.88z" fill="#3841DB" p-id="5063"></path></svg>