<?xml version="1.0" standalone="no"?><!DOCTYPE svg PUBLIC "-//W3C//DTD SVG 1.1//EN" "http://www.w3.org/Graphics/SVG/1.1/DTD/svg11.dtd"><svg t="1679298305696" class="icon" viewBox="0 0 1024 1024" version="1.1" xmlns="http://www.w3.org/2000/svg" p-id="3993" xmlns:xlink="http://www.w3.org/1999/xlink" width="64" height="64"><path d="M871.17824 102.4C944.27136 102.4 1003.52 160.03072 1003.52 231.13728v561.72544C1003.52 863.96928 944.27136 921.6 871.17824 921.6H173.30176C100.20864 921.6 40.96 863.96928 40.96 792.86272V231.13728C40.96 160.03072 100.20864 102.4 173.32224 102.4h697.856z m-132.36224 397.90592c-137.35936 0-258.4576 83.6608-305.0496 207.01184-3.072 8.17152-8.35584 22.30272-15.7696 42.33216-8.68352 23.36768-38.87104 30.84288-57.9584 14.336a1168.62976 1168.62976 0 0 0-40.7552-34.2016A255.87712 255.87712 0 0 0 161.25952 675.84c-16.32256 0-32.39936 1.49504-48.128 4.44416v112.57856c0 15.52384 6.3488 30.4128 17.6128 41.3696a61.0304 61.0304 0 0 0 42.55744 17.14176h697.856a61.0304 61.0304 0 0 0 42.53696-17.12128c11.264-10.97728 17.6128-25.86624 17.6128-41.3696V566.31296c-6.02112-9.1136-23.83872-23.7568-49.23392-36.10624-38.64576-18.78016-87.9616-29.92128-143.27808-29.92128z m132.34176-327.68H173.34272a61.0304 61.0304 0 0 0-42.55744 17.12128 57.71264 57.71264 0 0 0-17.6128 41.3696V609.0752a336.26112 336.26112 0 0 1 48.128-3.46112A329.216 329.216 0 0 1 368.04608 677.888C426.3936 529.98144 572.88704 430.08 738.816 430.08c74.11712 0 143.2576 18.41152 192.512 46.03904V231.13728c0-15.52384-6.3488-30.4128-17.6128-41.3696a61.0304 61.0304 0 0 0-42.55744-17.14176zM305.68448 476.89728c-59.8016 0-108.27776-47.16544-108.27776-105.32864S245.8624 266.24 305.664 266.24s108.27776 47.16544 108.27776 105.32864-48.47616 105.32864-108.27776 105.32864z m0-70.22592c19.92704 0 36.08576-15.70816 36.08576-35.10272s-16.15872-35.10272-36.08576-35.10272-36.10624 15.70816-36.10624 35.10272 16.1792 35.10272 36.10624 35.10272z" p-id="3994"></path></svg>