<?xml version="1.0" encoding="utf-8"?>
<!-- Generator: Adobe Illustrator 19.0.0, SVG Export Plug-In . SVG Version: 6.00 Build 0)  -->
<svg version="1.1" id="图层_1" xmlns="http://www.w3.org/2000/svg" xmlns:xlink="http://www.w3.org/1999/xlink" x="0px" y="0px"
	 viewBox="84 -84 200 200" style="enable-background:new 84 -84 200 200;" xml:space="preserve">
<style type="text/css">
	.st0{fill:#4C4D4E;}
	.st1{fill:#3841DB;}
</style>
<path class="st0" d="M227.8,97.9h-52.5c-21.3,0-39.4-21.2-39.4-46.9V41v-3.1c-20-2.5-35.6-22.5-35.6-46.9v-10
	c0-25.6,17.5-46.9,39.4-46.9h52.5c21.3,0,39.4,21.3,39.4,46.9v13.1c20,2.5,35.6,22.5,35.6,46.9v10C267.1,76.6,249.6,97.9,227.8,97.9
	z M140.3-51.5c-13.1,0-25,15-25,32.5v10c0,17.5,11.3,32.5,25,32.5h13.1l-1.9,8.8c-0.6,3.1-0.6,5.6-0.6,8.7v10
	c0,17.5,11.3,32.5,25,32.5h51.9c13.1,0,25-15,25-32.5V41c0-17.5-11.3-32.5-25-32.5h-13.1l1.9-8.7c0.6-3.1,0.6-5.6,0.6-8.7v-10
	c0-17.5-11.3-32.5-25-32.5C192.1-51.5,140.3-51.5,140.3-51.5z"/>
<path class="st1" d="M192.8,37.9h-56.9l1.9-8.7c4.4-20,20-35,38.1-35h56.9l-1.9,8.7C225.9,23.5,210.3,37.9,192.8,37.9L192.8,37.9z
	 M154.6,23.5h38.1c8.8,0,16.3-6.3,20.6-15h-38.1C167.1,9.1,159,14.8,154.6,23.5z"/>
</svg>
