<?xml version="1.0" standalone="no"?><!DOCTYPE svg PUBLIC "-//W3C//DTD SVG 1.1//EN" "http://www.w3.org/Graphics/SVG/1.1/DTD/svg11.dtd"><svg t="1679988076690" class="icon" viewBox="0 0 1024 1024" version="1.1" xmlns="http://www.w3.org/2000/svg" p-id="4116" width="200" height="200" xmlns:xlink="http://www.w3.org/1999/xlink"><path d="M534.656 625.152l45.248 45.248-135.808 135.744a160 160 0 0 1-226.24-226.24l135.744-135.808 45.248 45.248-135.744 135.808a96 96 0 0 0 135.744 135.744l135.808-135.744z m90.496-90.496l135.744-135.808a96 96 0 1 0-135.744-135.744L489.408 398.848l-45.312-45.248 135.808-135.744a160 160 0 1 1 226.24 226.24l-135.744 135.808-45.248-45.248z m-226.304 45.248l45.312 45.248 180.992-181.056-45.248-45.248-181.056 181.056z" fill="#1F5FFF" fill-opacity=".9" p-id="4117"></path></svg>