<?xml version="1.0" encoding="utf-8"?>
<!-- Generator: Adobe Illustrator 19.0.0, SVG Export Plug-In . SVG Version: 6.00 Build 0)  -->
<svg version="1.1" id="图层_1" xmlns="http://www.w3.org/2000/svg" xmlns:xlink="http://www.w3.org/1999/xlink" x="0px" y="0px"
	 viewBox="84 -84 200 200" style="enable-background:new 84 -84 200 200;" xml:space="preserve">
<style type="text/css">
	.st0{fill:#4C4D4E;}
	.st1{fill:#3841DB;}
</style>
<path class="st0" d="M244-57.1H124c-13.8,0-25,11.3-25,25v95.6c0,13.8,11.3,25,25,25h120.6c13.8,0,25-11.2,25-25v-95
	C269.6-45.9,258.4-57.1,244-57.1L244-57.1z M124-44h120.6c6.9,0,12.5,5.6,12.5,12.5v15.6H111.5v-15.6C111.5-38.4,117.1-44,124-44z
	 M244,76H124c-6.9,0-12.5-5.6-12.5-12.5V-2.1h145v66.3C256.5,70.4,250.9,76,244,76z"/>
<path class="st1" d="M145.3,29.8h78.1c3.8,0,7.5-3.1,7.5-7.5c0-3.8-3.1-6.9-7.5-6.9h-78.1c-3.8,0-6.9,3.1-6.9,6.9
	C137.8,26,140.9,29.8,145.3,29.8z M223.4,43.5h-78.1c-3.8,0-6.9,3.1-6.9,7.5s3.1,7.5,6.9,7.5h78.1c3.8,0,7.5-3.1,7.5-7.5
	S227.1,43.5,223.4,43.5z"/>
</svg>
