<?xml version="1.0" standalone="no"?><!DOCTYPE svg PUBLIC "-//W3C//DTD SVG 1.1//EN" "http://www.w3.org/Graphics/SVG/1.1/DTD/svg11.dtd"><svg t="1651904313895" class="icon" viewBox="0 0 1024 1024" version="1.1" xmlns="http://www.w3.org/2000/svg" p-id="12867" xmlns:xlink="http://www.w3.org/1999/xlink" width="64" height="64"><defs><style type="text/css">@font-face { font-family: feedback-iconfont; src: url("//at.alicdn.com/t/font_1031158_u69w8yhxdu.woff2?t=1630033759944") format("woff2"), url("//at.alicdn.com/t/font_1031158_u69w8yhxdu.woff?t=1630033759944") format("woff"), url("//at.alicdn.com/t/font_1031158_u69w8yhxdu.ttf?t=1630033759944") format("truetype"); }
</style></defs><path d="M704 627.2c6.4 0 9.6-3.2 16-6.4 9.6-9.6 9.6-22.4 0-28.8l-192-192c-3.2-3.2-3.2-3.2-6.4-3.2-6.4-3.2-9.6-3.2-16 0-3.2 0-6.4 3.2-6.4 3.2l-192 192c-9.6 9.6-9.6 22.4 0 28.8 3.2 3.2 9.6 6.4 16 6.4s9.6-3.2 16-6.4l153.6-153.6v380.8c0 12.8 9.6 22.4 22.4 22.4 12.8 0 22.4-9.6 22.4-22.4V467.2l153.6 153.6c0 6.4 6.4 6.4 12.8 6.4z m121.6-233.6C822.4 224 681.6 89.6 512 89.6c-169.6 0-310.4 137.6-313.6 304-124.8 38.4-208 163.2-192 300.8 12.8 96 76.8 179.2 166.4 217.6 64 28.8 124.8 28.8 179.2 12.8 6.4-3.2 12.8-9.6 12.8-19.2 0-12.8-9.6-22.4-22.4-22.4-3.2 0-6.4 0-9.6 3.2-44.8 9.6-96 9.6-144-12.8-76.8-35.2-134.4-108.8-144-192-12.8-118.4 64-224 176-252.8l16-3.2v-16-6.4c0-150.4 121.6-272 272-272s272 121.6 272 272V428.8l9.6 3.2c99.2 25.6 179.2 112 185.6 214.4 9.6 137.6-99.2 252.8-236.8 252.8-19.2 0-35.2-3.2-54.4-6.4H675.2c-12.8 0-22.4 9.6-22.4 22.4 0 9.6 6.4 16 16 19.2 54.4 16 118.4 12.8 179.2-12.8 89.6-38.4 153.6-121.6 166.4-217.6 19.2-147.2-64-272-188.8-310.4z" p-id="12868"></path></svg>