<?xml version="1.0" encoding="utf-8"?>
<!-- Generator: Adobe Illustrator 19.0.0, SVG Export Plug-In . SVG Version: 6.00 Build 0)  -->
<svg version="1.1" id="图层_1" xmlns="http://www.w3.org/2000/svg" xmlns:xlink="http://www.w3.org/1999/xlink" x="0px" y="0px"
	 viewBox="0 0 32 32" style="enable-background:new 0 0 32 32;" xml:space="preserve">
<style type="text/css">
	.st0{fill:#3841DB;}
	.st1{fill:#4C4D4E;}
</style>
<g id="XMLID_1_">
	<path id="XMLID_5_" class="st0" d="M8.8,22.8c-0.3,0-0.5-0.1-0.7-0.3c-0.4-0.4-0.4-1,0-1.4l5.8-5.8c0.3-0.3,0.9-0.4,1.3-0.1
		l3.9,2.6l4.1-4.5c0.4-0.4,1-0.4,1.4-0.1c0.4,0.4,0.4,1,0.1,1.4l-4.7,5.1c-0.3,0.4-0.9,0.4-1.3,0.2l-4-2.6l-5.2,5.2
		C9.3,22.7,9,22.8,8.8,22.8z"/>
	<path id="XMLID_9_" class="st1" d="M22.2,3.3H8c-2,0-3.7,1.6-3.7,3.7v18.2c0,2,1.6,3.7,3.7,3.7h16c2,0,3.7-1.6,3.7-3.7V8.7
		L22.2,3.3z M25,8.9h-2.9V6L25,8.9z M24,26.8H8c-0.9,0-1.7-0.8-1.7-1.7V6.9C6.3,6,7.1,5.3,8,5.3h12.1v4.6c0,0.6,0.4,1,1,1h4.5v14.2
		C25.7,26,24.9,26.8,24,26.8z"/>
</g>
</svg>
