<?xml version="1.0" standalone="no"?><!DOCTYPE svg PUBLIC "-//W3C//DTD SVG 1.1//EN" "http://www.w3.org/Graphics/SVG/1.1/DTD/svg11.dtd"><svg t="1634356812998" class="icon" viewBox="0 0 1024 1024" version="1.1" xmlns="http://www.w3.org/2000/svg" p-id="3557" xmlns:xlink="http://www.w3.org/1999/xlink" width="200" height="200"><defs><style type="text/css"></style></defs><path d="M684.8 486.4c35.2-41.6 54.4-92.8 54.4-150.4 0-131.2-105.6-236.8-236.8-236.8s-236.8 105.6-236.8 236.8c0 9.6 0 19.2 3.2 28.8v6.4c22.4 108.8 121.6 192 236.8 192 73.6 0 137.6-28.8 179.2-76.8z m-182.4 25.6c-48 0-92.8-19.2-124.8-51.2s-51.2-76.8-51.2-124.8 19.2-92.8 51.2-124.8S454.4 160 502.4 160s92.8 19.2 124.8 51.2 51.2 76.8 51.2 124.8-19.2 92.8-51.2 124.8-76.8 51.2-124.8 51.2z" fill="#4C4D4E" p-id="3558"></path><path d="M502.4 537.6c0-16-12.8-28.8-28.8-28.8-35.2 3.2-70.4 9.6-105.6 19.2 0 0 3.2 0 3.2 3.2-6.4 3.2-12.8 6.4-19.2 6.4-44.8 22.4-86.4 51.2-121.6 89.6-35.2 38.4-64 83.2-83.2 134.4-16 41.6-25.6 86.4-28.8 131.2 0 16 12.8 32 28.8 32s28.8-12.8 28.8-28.8c12.8-176 140.8-316.8 300.8-332.8 16 3.2 25.6-9.6 25.6-25.6z" fill="#4C4D4E" p-id="3559"></path><path d="M873.6 726.4h-313.6c-19.2 0-32-12.8-32-32s12.8-32 32-32h313.6c19.2 0 32 12.8 32 32s-12.8 32-32 32zM873.6 889.6h-313.6c-19.2 0-32-12.8-32-32s12.8-32 32-32h313.6c19.2 0 32 12.8 32 32s-12.8 32-32 32z" fill="#3841DB" p-id="3560"></path></svg>