<?xml version="1.0" standalone="no"?><!DOCTYPE svg PUBLIC "-//W3C//DTD SVG 1.1//EN" "http://www.w3.org/Graphics/SVG/1.1/DTD/svg11.dtd"><svg t="1648104634590" class="icon" viewBox="0 0 1280 1024" version="1.1" xmlns="http://www.w3.org/2000/svg" p-id="6024" xmlns:xlink="http://www.w3.org/1999/xlink" width="250" height="200"><defs><style type="text/css">@font-face { font-family: feedback-iconfont; src: url("//at.alicdn.com/t/font_1031158_u69w8yhxdu.woff2?t=1630033759944") format("woff2"), url("//at.alicdn.com/t/font_1031158_u69w8yhxdu.woff?t=1630033759944") format("woff"), url("//at.alicdn.com/t/font_1031158_u69w8yhxdu.ttf?t=1630033759944") format("truetype"); }
</style></defs><path d="M260.510476 388.144762A115.078095 115.078095 0 1 1 375.588571 273.066667a115.078095 115.078095 0 0 1-115.078095 115.078095z m0-153.112381a33.158095 33.158095 0 0 0-34.133333 34.133333 37.059048 37.059048 0 0 0 34.133333 34.133334 34.133333 34.133333 0 0 0 34.133334-34.133334 34.133333 34.133333 0 0 0-34.133334-34.133333zM54.735238 804.571429a37.059048 37.059048 0 0 1-38.034286-38.034286 29.257143 29.257143 0 0 1 16.579048-30.232381l299.398095-234.057143a116.053333 116.053333 0 0 1 149.211429 8.777143l178.468571 174.567619a39.009524 39.009524 0 0 1-54.613333 55.588571L426.300952 565.638095a39.984762 39.984762 0 0 0-42.910476 0L84.967619 800.670476a115.078095 115.078095 0 0 1-30.232381 3.900953z" fill="#3841DB" p-id="6025"></path><path d="M1182.110476 1024H97.645714a97.52381 97.52381 0 0 1-97.523809-102.4v-819.2A97.52381 97.52381 0 0 1 97.645714 0h1084.464762a97.52381 97.52381 0 0 1 97.52381 102.4v823.100952a97.52381 97.52381 0 0 1-97.52381 98.499048zM97.645714 80.944762a20.48 20.48 0 0 0-21.455238 21.455238v823.100952a20.48 20.48 0 0 0 21.455238 21.455238h1084.464762a19.504762 19.504762 0 0 0 20.48-21.455238V102.4a19.504762 19.504762 0 0 0-20.48-21.455238z" fill="#4C4D4E" p-id="6026"></path><path d="M1245.500952 891.367619a34.133333 34.133333 0 0 1-34.133333-21.455238l-221.379048-430.08a28.281905 28.281905 0 0 0-38.034285-13.653333c-4.87619 0-4.87619 0-8.777143 4.87619L657.432381 738.255238a40.96 40.96 0 0 1-55.588571 0A39.984762 39.984762 0 0 1 596.967619 682.666667l286.72-307.2a108.251429 108.251429 0 0 1 153.112381 0 97.52381 97.52381 0 0 1 17.554286 25.35619l221.379047 427.154286a41.935238 41.935238 0 0 1-16.579047 54.613333s-8.777143 8.777143-13.653334 8.777143z" fill="#4C4D4E" p-id="6027"></path></svg>