<?xml version="1.0" encoding="utf-8"?>
<!-- Generator: Adobe Illustrator 19.0.0, SVG Export Plug-In . SVG Version: 6.00 Build 0)  -->
<svg version="1.1" id="图层_1" xmlns="http://www.w3.org/2000/svg" xmlns:xlink="http://www.w3.org/1999/xlink" x="0px" y="0px"
	 viewBox="84 -84 200 200" style="enable-background:new 84 -84 200 200;" xml:space="preserve">
<style type="text/css">
	.st0{fill:#3841DB;}
	.st1{fill:#4C4D4E;}
</style>
<path class="st0" d="M219.6-9h-71.3c-2.5,0-4.4-3.1-4.4-7.5c0-3.8,1.9-6.9,4.4-6.9H219c2.5,0,4.4,3.1,4.4,6.9
	C223.4-12.1,221.5-9,219.6-9z M219.6,36h-71.3c-2.5,0-4.4-3.1-4.4-6.9s1.9-7.5,4.4-7.5H219c2.5,0,4.4,3.1,4.4,7.5
	C223.4,32.9,221.5,36,219.6,36z"/>
<path class="st1" d="M234.6,101.6H133.4c-15,0-27.5-12.5-27.5-27.5V-42.1c0-15,12.5-27.5,27.5-27.5h101.9c15,0,27.5,12.5,27.5,27.5
	V74.8C262.1,89.1,250.2,101.6,234.6,101.6L234.6,101.6z M133.4-55.9c-7.5,0-13.8,6.3-13.8,13.8V74.8c0,7.5,6.3,13.8,13.8,13.8h101.9
	c7.5,0,13.8-6.3,13.8-13.8V-42.1c0-7.5-6.3-13.8-13.8-13.8H133.4z"/>
</svg>
