<?xml version="1.0" encoding="utf-8"?>
<!-- Generator: Adobe Illustrator 19.0.0, SVG Export Plug-In . SVG Version: 6.00 Build 0)  -->
<svg version="1.1" id="图层_1" xmlns="http://www.w3.org/2000/svg" xmlns:xlink="http://www.w3.org/1999/xlink" x="0px" y="0px"
	 viewBox="84 -84 200 200" style="enable-background:new 84 -84 200 200;" xml:space="preserve">
<style type="text/css">
	.st0{fill:#4C4D4E;}
	.st1{fill:#3841DB;}
</style>
<path class="st0" d="M259.6-40.9l-63.1-30c-7.5-3.8-16.9-3.8-24.4,0L109-40.3C99.6-35.9,94.6-27.8,94.6-19v68.8
	c0,9.4,5.6,17.5,14.4,21.9l63.1,30.6c3.8,1.9,8.1,3.1,11.9,3.1c4.4,0,8.1-1.3,11.9-3.1l63.1-30c8.8-4.4,15-12.5,14.4-21.9V-19
	C274-27.8,269-35.9,259.6-40.9L259.6-40.9z M260.3,49.7c0,4.4-2.5,8.8-6.9,11.2l-62.5,30l-13.8,0.6L115.3,61
	c-4.4-2.5-7.5-6.3-6.9-11.2v-66.3l4.4-11.3c0.6-0.6,1.9-1.2,2.5-1.9l63.1-30c1.9-1.3,3.8-1.9,5.6-1.9s3.8,0.6,5.6,1.3l63.1,30
	c0.6,0.6,1.9,1.3,2.5,1.9l4.4,11.9v66.3L260.3,49.7z"/>
<path class="st1" d="M272.1-28.4c-1.9-3.1-5.6-5-8.8-3.1L185.9,5.4c-0.6,0-0.6,0.6-1.3,0.6H184c-0.6,0-0.6-0.6-0.6-0.6l-78.1-36.9
	c-3.1-1.9-7.5,0-8.8,3.1c-1.9,3.1,0,7.5,3.1,8.7l77.5,36.9v81.3c0,3.8,3.1,6.9,6.9,6.9s6.9-3.1,6.9-6.9V17.9h0.6L269-19
	C272.1-20.9,273.4-25.3,272.1-28.4z"/>
</svg>
