<?xml version="1.0" encoding="utf-8"?>
<!-- Generator: Adobe Illustrator 19.0.0, SVG Export Plug-In . SVG Version: 6.00 Build 0)  -->
<svg version="1.1" id="图层_1" xmlns="http://www.w3.org/2000/svg" xmlns:xlink="http://www.w3.org/1999/xlink" x="0px" y="0px"
	 viewBox="84 -84 200 200" style="enable-background:new 84 -84 200 200;" xml:space="preserve">
<style type="text/css">
	.st0{fill:#4C4D4E;}
	.st1{fill:#3841DB;}
</style>
<path class="st0" d="M240.9-22.1h-12.5v-6.3c0-24.4-20-44.4-44.4-44.4s-44.4,20-44.4,44.4v6.3h-12.5c-13.8,0-25,11.3-25,25v75.6
	c0,13.8,11.3,25,25,25h113.8c13.8,0,25-11.2,25-25v-75C266.5-10.9,254.6-22.1,240.9-22.1z M152.1-28.4c0-17.5,14.4-31.9,31.9-31.9
	s31.9,14.4,31.9,31.9v6.3h-63.8C152.1-22.1,152.1-28.4,152.1-28.4z M253.4,79.1c0,6.9-5.6,12.5-12.5,12.5H127.1
	c-6.9,0-12.5-5.6-12.5-12.5V3.5c0-6.9,5.6-12.5,12.5-12.5h12.5V9.8c0,3.8,2.5,6.3,6.3,6.3s6.3-2.5,6.3-6.3V-9h63.1V9.8
	c0,3.8,2.5,6.3,6.3,6.3s6.3-2.5,6.3-6.3V-9h12.5c6.9,0,12.5,5.6,12.5,12.5v75.6H253.4L253.4,79.1z"/>
<path class="st1" d="M224.6,57.9h-81.3c-3.1,0-6.3-2.5-6.3-6.3v-1.9c0-3.1,2.5-6.3,6.3-6.3h81.3c3.1,0,6.3,2.5,6.3,6.3v1.9
	C230.9,54.8,228.4,57.9,224.6,57.9z"/>
</svg>
