<?xml version="1.0" standalone="no"?><!DOCTYPE svg PUBLIC "-//W3C//DTD SVG 1.1//EN" "http://www.w3.org/Graphics/SVG/1.1/DTD/svg11.dtd"><svg t="1668476398843" class="icon" viewBox="0 0 1024 1024" version="1.1" xmlns="http://www.w3.org/2000/svg" p-id="11294" xmlns:xlink="http://www.w3.org/1999/xlink" width="200" height="200"><path d="M841.142857 768V877.714286c0 58.514286-51.2 109.714286-109.714286 109.714285H607.085714c-14.628571 0-21.942857-7.314286-21.942857-21.942857v-21.942857c0-73.142857-43.885714-124.342857-131.657143-124.342857-87.771429 0-131.657143 51.2-131.657143 124.342857v21.942857c0 14.628571-7.314286 21.942857-21.942857 21.942857H175.542857C117.028571 980.114286 73.142857 936.228571 73.142857 877.714286v-131.657143c0-14.628571 7.314286-21.942857 21.942857-21.942857h43.885715c58.514286 0 109.714286-58.514286 109.714285-131.657143s-43.885714-131.657143-109.714285-131.657143h-43.885715c-14.628571 7.314286-21.942857 0-21.942857-14.628571V321.828571c0-58.514286 51.2-109.714286 109.714286-109.714285H292.571429C292.571429 117.028571 351.085714 43.885714 460.8 43.885714c109.714286 0 168.228571 73.142857 168.228571 168.228572H731.428571c58.514286 0 109.714286 51.2 109.714286 109.714285v109.714286h21.942857c80.457143 0 146.285714 73.142857 146.285715 168.228572 0 95.085714-65.828571 168.228571-146.285715 168.228571h-21.942857z" p-id="11295"></path></svg>