<?xml version="1.0" encoding="utf-8"?>
<!-- Generator: Adobe Illustrator 19.0.0, SVG Export Plug-In . SVG Version: 6.00 Build 0)  -->
<svg version="1.1" id="图层_1" xmlns="http://www.w3.org/2000/svg" xmlns:xlink="http://www.w3.org/1999/xlink" x="0px" y="0px"
	 viewBox="168 0 32 32" style="enable-background:new 168 0 32 32;" xml:space="preserve">
<style type="text/css">
	.st0{fill:#3841DB;}
	.st1{fill:#4C4D4E;}
</style>
<g>
	<path id="XMLID_929_" class="st0" d="M178.1,14.5h11.8c0.5,0,1,0.4,1,1c0,0.5-0.4,1-1,1h-11.8c-0.5,0-1-0.4-1-1
		C177.1,14.9,177.6,14.5,178.1,14.5z"/>
	<g>
		<g>
			<path class="st1" d="M193.8,8.6h-19.6v0c0,0,0,0,0,0c-1.1,0-1.9,0.9-1.9,2v16.7c0,0,0,0,0,0c0,1.1,0.9,2,2,2h19.6
				c1.1,0,2-0.9,2-2V10.6C195.8,9.5,194.9,8.6,193.8,8.6z M193.8,27.3h-19.6V10.6h19.6V27.3z M178.1,6.7c0.1,0,0.1,0,0.2,0
				c0.5-0.1,0.9-0.5,0.8-1c0,0,0-0.1,0-0.1c0-0.5,0.5-0.9,1-0.9h7.8c0.1,0,0.1,0,0.2,0c0.5,0.1,0.9,0.5,0.8,1c0,0.5,0.4,1,1,1
				c0.5,0,1-0.4,1-1c0,0,0-0.1,0-0.1c0-1.6-1.4-2.8-2.9-2.8h-7.8c0,0-0.1,0-0.1,0c-1.6,0-2.9,1.3-2.8,2.9c0,0,0,0.1,0,0.1
				C177.2,6.3,177.6,6.7,178.1,6.7z"/>
		</g>
	</g>
</g>
</svg>
