<?xml version="1.0" standalone="no"?><!DOCTYPE svg PUBLIC "-//W3C//DTD SVG 1.1//EN" "http://www.w3.org/Graphics/SVG/1.1/DTD/svg11.dtd"><svg t="1648104628685" class="icon" viewBox="0 0 1033 1024" version="1.1" xmlns="http://www.w3.org/2000/svg" p-id="5886" xmlns:xlink="http://www.w3.org/1999/xlink" width="201.7578125" height="200"><defs><style type="text/css">@font-face { font-family: feedback-iconfont; src: url("//at.alicdn.com/t/font_1031158_u69w8yhxdu.woff2?t=1630033759944") format("woff2"), url("//at.alicdn.com/t/font_1031158_u69w8yhxdu.woff?t=1630033759944") format("woff"), url("//at.alicdn.com/t/font_1031158_u69w8yhxdu.ttf?t=1630033759944") format("truetype"); }
</style></defs><path d="M876.046848 713.216a153.6 153.6 0 1 0-150.016-153.6 153.6 153.6 0 0 0 6.656 46.592l-87.04 56.32a108.544 108.544 0 0 0-70.144-25.088 116.736 116.736 0 0 0 0 232.96 107.52 107.52 0 0 0 64-20.992l122.88 91.136v7.68A75.264 75.264 0 1 0 837.134848 870.4a76.8 76.8 0 0 0-30.72 6.656l-122.88-90.624a115.2 115.2 0 0 0 4.608-32.768 134.656 134.656 0 0 0 0-25.088l87.04-56.32a146.944 146.944 0 0 0 100.864 40.96z m0-232.96a77.824 77.824 0 1 1-75.264 77.824 76.8 76.8 0 0 1 75.264-77.824z m-300.544 310.784a38.912 38.912 0 0 1 0-77.824 38.912 38.912 0 0 1 0 77.824z" fill="#3841DB" p-id="5887"></path><path d="M145.422848 243.712m38.4 0l333.824 0q38.4 0 38.4 38.4l0 13.824q0 38.4-38.4 38.4l-333.824 0q-38.4 0-38.4-38.4l0-13.824q0-38.4 38.4-38.4Z" fill="#3841DB" p-id="5888"></path><path d="M145.422848 450.048m38.4 0l244.736 0q38.4 0 38.4 38.4l0 13.824q0 38.4-38.4 38.4l-244.736 0q-38.4 0-38.4-38.4l0-13.824q0-38.4 38.4-38.4Z" fill="#3841DB" p-id="5889"></path><path d="M698.382848 0h-614.4A86.528 86.528 0 0 0 0.014848 88.064v816.64a86.016 86.016 0 0 0 84.48 87.552h430.08a41.984 41.984 0 0 0 41.472-42.496 41.984 41.984 0 0 0-41.472-42.496H433.678848l-351.744-2.56V88.064v-3.072l616.96 3.072V348.16a41.984 41.984 0 0 0 40.96 42.496 41.984 41.984 0 0 0 40.96-42.496V88.064A86.528 86.528 0 0 0 698.382848 0z" fill="#4C4D4E" p-id="5890"></path></svg>