<?xml version="1.0" standalone="no"?><!DOCTYPE svg PUBLIC "-//W3C//DTD SVG 1.1//EN" "http://www.w3.org/Graphics/SVG/1.1/DTD/svg11.dtd"><svg t="1650419406220" class="icon" viewBox="0 0 1024 1024" version="1.1" xmlns="http://www.w3.org/2000/svg" p-id="11046" xmlns:xlink="http://www.w3.org/1999/xlink" width="64" height="64"><defs><style type="text/css">@font-face { font-family: feedback-iconfont; src: url("//at.alicdn.com/t/font_1031158_u69w8yhxdu.woff2?t=1630033759944") format("woff2"), url("//at.alicdn.com/t/font_1031158_u69w8yhxdu.woff?t=1630033759944") format("woff"), url("//at.alicdn.com/t/font_1031158_u69w8yhxdu.ttf?t=1630033759944") format("truetype"); }
</style></defs><path d="M681.6 476.8h-313.6c-16 0-32 12.8-32 32s12.8 32 32 32h313.6c16 0 32-12.8 32-32s-16-32-32-32z m-124.8 156.8h-188.8c-16 0-32 12.8-32 32s12.8 32 32 32h188.8c16 0 32-12.8 32-32s-16-32-32-32z m124.8-313.6h-313.6c-16 0-32 12.8-32 32s12.8 32 32 32h313.6c16 0 32-12.8 32-32s-16-32-32-32z m92.8-249.6H275.2C224 70.4 182.4 112 182.4 163.2v752c0 6.4 0 9.6 3.2 16 9.6 16 28.8 19.2 41.6 12.8L310.4 896c35.2-22.4 80-22.4 118.4-3.2l6.4 3.2c54.4 32 124.8 35.2 179.2 3.2l6.4-3.2c38.4-22.4 86.4-22.4 124.8 0l80 48c6.4 3.2 9.6 3.2 16 3.2 16 0 32-12.8 32-32V163.2c-3.2-51.2-48-92.8-99.2-92.8z m32 790.4l-32-19.2c-54.4-32-124.8-35.2-179.2-3.2l-6.4 3.2c-35.2 22.4-80 22.4-115.2 3.2l-12.8-6.4c-57.6-32-124.8-28.8-179.2 3.2l-35.2 19.2V163.2c0-16 12.8-32 32-32H784c16 3.2 28.8 16 28.8 32v697.6z" p-id="11047"></path></svg>