<?xml version="1.0" standalone="no"?><!DOCTYPE svg PUBLIC "-//W3C//DTD SVG 1.1//EN" "http://www.w3.org/Graphics/SVG/1.1/DTD/svg11.dtd"><svg t="1709169744185" class="icon" viewBox="0 0 1024 1024" version="1.1" xmlns="http://www.w3.org/2000/svg" p-id="8492" xmlns:xlink="http://www.w3.org/1999/xlink" width="64" height="64"><path d="M819.2 0H215.04c-15.36 0-35.84 0-56.32 5.12C66.56 25.6 5.12 107.52 0 204.8v593.92c0 20.48 0 46.08 5.12 66.56 25.6 92.16 102.4 153.6 199.68 158.72h604.16c20.48 0 35.84 0 56.32-5.12 92.16-20.48 158.72-102.4 158.72-199.68V204.8c0-112.64-92.16-204.8-204.8-204.8z m0 819.2c-61.44 61.44-153.6 76.8-230.4 35.84-10.24-5.12-20.48-5.12-30.72 0-179.2 25.6-353.28-102.4-384-281.6-5.12-20.48-5.12-40.96-5.12-61.44 0-20.48 0-35.84 5.12-56.32 0-5.12 0-10.24-5.12-15.36-56.32-117.76 0-245.76 122.88-286.72 51.2-15.36 97.28-10.24 143.36 10.24 10.24 5.12 15.36 5.12 25.6 5.12 112.64-15.36 209.92 10.24 291.84 92.16 66.56 61.44 102.4 133.12 107.52 225.28 0 30.72 0 56.32-5.12 87.04 0 5.12 0 10.24 5.12 20.48 35.84 71.68 20.48 163.84-40.96 225.28z m-184.32-322.56c-25.6-15.36-56.32-20.48-87.04-25.6-30.72-10.24-61.44-10.24-92.16-25.6-15.36-5.12-25.6-15.36-25.6-30.72 0-20.48 5.12-30.72 20.48-40.96 5.12 0 10.24-5.12 20.48-5.12 46.08-10.24 87.04-5.12 117.76 35.84l20.48 20.48c15.36 10.24 40.96 5.12 56.32-5.12 10.24-10.24 15.36-30.72 5.12-46.08-5.12-15.36-15.36-25.6-25.6-30.72-76.8-56.32-163.84-61.44-250.88-20.48-51.2 15.36-76.8 71.68-61.44 128 10.24 40.96 35.84 61.44 71.68 76.8 30.72 10.24 61.44 15.36 92.16 25.6 20.48 5.12 46.08 10.24 66.56 20.48 35.84 10.24 40.96 46.08 15.36 71.68-25.6 30.72-117.76 30.72-153.6-15.36-5.12-10.24-10.24-15.36-20.48-25.6-15.36-15.36-40.96-20.48-56.32-10.24-20.48 10.24-25.6 30.72-15.36 56.32 10.24 20.48 25.6 40.96 40.96 51.2 40.96 30.72 87.04 35.84 138.24 35.84 46.08 0 97.28-5.12 133.12-35.84 66.56-51.2 71.68-163.84-10.24-204.8z" fill="#0093DF" p-id="8493"></path></svg>