<?xml version="1.0" standalone="no"?><!DOCTYPE svg PUBLIC "-//W3C//DTD SVG 1.1//EN" "http://www.w3.org/Graphics/SVG/1.1/DTD/svg11.dtd"><svg t="1709188671840" class="icon" viewBox="0 0 1024 1024" version="1.1" xmlns="http://www.w3.org/2000/svg" p-id="8641" xmlns:xlink="http://www.w3.org/1999/xlink" width="64" height="64"><path d="M870.4 1024H153.6c-81.92 0-153.6-66.56-153.6-153.6V153.6c0-81.92 66.56-153.6 153.6-153.6h716.8c81.92 0 153.6 66.56 153.6 153.6v716.8c0 87.04-66.56 153.6-153.6 153.6z" fill="#00A9E3" p-id="8642"></path><path d="M742.4 291.84c40.96-15.36 56.32-5.12 56.32 30.72 0 20.48-15.36 102.4-25.6 189.44l-40.96 256c0 25.6-15.36 40.96-30.72 46.08-30.72 5.12-71.68-20.48-81.92-30.72-5.12-5.12-122.88-76.8-163.84-112.64-10.24-10.24-25.6-30.72 0-51.2l174.08-163.84c20.48-20.48 40.96-66.56-40.96-10.24l-230.4 153.6c-25.6 15.36-51.2 15.36-81.92 5.12l-107.52-30.72c-25.6-15.36-15.36-30.72 25.6-51.2C358.4 445.44 563.2 363.52 742.4 291.84z" fill="#FFFFFF" p-id="8643"></path></svg>