<?xml version="1.0" standalone="no"?><!DOCTYPE svg PUBLIC "-//W3C//DTD SVG 1.1//EN" "http://www.w3.org/Graphics/SVG/1.1/DTD/svg11.dtd"><svg t="1679914813560" class="icon" viewBox="0 0 1024 1024" version="1.1" xmlns="http://www.w3.org/2000/svg" p-id="4135" xmlns:xlink="http://www.w3.org/1999/xlink" width="200" height="200"><path d="M512 64c247.424 0 448 200.576 448 448s-200.576 448-448 448S64 759.424 64 512 264.576 64 512 64z m0 64C299.936 128 128 299.936 128 512s171.936 384 384 384 384-171.936 384-384S724.064 128 512 128z m0 576a38.4 38.4 0 1 1 0 76.8 38.4 38.4 0 0 1 0-76.8z m0-447.616a155.328 155.328 0 0 1 155.2 155.2c0 68.32-52.448 121.728-105.408 143.264a28.928 28.928 0 0 0-17.536 23.04l-0.256 4.032V640h-64v-58.08c0-36.8 21.024-68.544 51.904-83.744l5.568-2.496c37.28-15.168 65.728-49.664 65.728-84.096 0-50.24-40.96-91.2-91.2-91.2a91.36 91.36 0 0 0-91.04 85.856l-0.16 5.344h-64A155.328 155.328 0 0 1 512 256.384z" p-id="4136"></path></svg>