<?xml version="1.0" standalone="no"?><!DOCTYPE svg PUBLIC "-//W3C//DTD SVG 1.1//EN" "http://www.w3.org/Graphics/SVG/1.1/DTD/svg11.dtd"><svg t="1648104602325" class="icon" viewBox="0 0 1024 1024" version="1.1" xmlns="http://www.w3.org/2000/svg" p-id="5750" xmlns:xlink="http://www.w3.org/1999/xlink" width="200" height="200"><defs><style type="text/css">@font-face { font-family: feedback-iconfont; src: url("//at.alicdn.com/t/font_1031158_u69w8yhxdu.woff2?t=1630033759944") format("woff2"), url("//at.alicdn.com/t/font_1031158_u69w8yhxdu.woff?t=1630033759944") format("woff"), url("//at.alicdn.com/t/font_1031158_u69w8yhxdu.ttf?t=1630033759944") format("truetype"); }
</style></defs><path d="M953.91936 158.08L527.67936 2.56h-25.6L68.79936 159.36a39.68 39.68 0 0 0-26.24 36.48v288c0 342.4 348.8 489.6 440.32 534.4a40.96 40.96 0 0 0 34.56 0c91.52-44.8 464-192 464-536.32V195.2a38.4 38.4 0 0 0-27.52-37.12z m-53.76 325.12c0 282.24-302.08 403.84-400 456.96-94.72-49.92-378.88-177.92-378.88-456.32V223.36l393.6-137.6 384 136.96z" fill="#4C4D4E" p-id="5751"></path><path d="M511.67936 256l128.64 0.64-128.64 212.48H682.55936l-213.12 341.76 42.24-256H341.43936L511.67936 256z" fill="#3841DB" p-id="5752"></path></svg>