<?xml version="1.0" standalone="no"?><!DOCTYPE svg PUBLIC "-//W3C//DTD SVG 1.1//EN" "http://www.w3.org/Graphics/SVG/1.1/DTD/svg11.dtd"><svg t="1635317089588" class="icon" viewBox="0 0 1280 1024" version="1.1" xmlns="http://www.w3.org/2000/svg" p-id="8878" xmlns:xlink="http://www.w3.org/1999/xlink" width="80" height="64"><defs><style type="text/css"></style></defs><path d="M127.9997 91.199786h346.399188L575.99865 192.799548l26.399938 26.399938h549.598712a36.799914 36.799914 0 0 1 36.799914 36.799914v639.9985a36.799914 36.799914 0 0 1-36.799914 36.799914H127.9997a36.799914 36.799914 0 0 1-35.999916-36.799914V127.9997a36.799914 36.799914 0 0 1 35.999916-36.799914M0 127.9997v767.9982a127.9997 127.9997 0 0 0 127.9997 127.9997h1023.9976a127.199702 127.199702 0 0 0 127.9997-127.9997v-639.9985a127.9997 127.9997 0 0 0-127.9997-127.9997H639.9985L531.198755 19.199955A65.599846 65.599846 0 0 0 485.598862 0H127.9997A127.9997 127.9997 0 0 0 0 127.9997z" p-id="8879"></path><path d="M307.999278 652.79847a42.399901 42.399901 0 0 1 35.199918-46.399891h559.998687c19.999953 0 35.199918 20.799951 35.199918 46.399891s-15.199964 47.199889-35.199918 47.199889h-559.998687c-19.199955 0-35.199918-19.199955-35.199918-47.199889z" p-id="8880"></path><path d="M693.598374 635.998509a21.599949 21.599949 0 0 1 5.599987-19.199955 39.199908 39.199908 0 0 1 21.59995-4.799988h107.999747a70.399835 70.399835 0 0 0 20.799951 0 11.199974 11.199974 0 0 0 9.599977-11.199974 124.799708 124.799708 0 0 1 0-15.999963v-15.999962c0-7.199983 0-12.79997 7.199983-14.399966s9.599978 0 15.999963 4.799988l23.199946 19.199955 27.999934 22.399948 28.799932 23.199946 23.999944 19.199955a22.399948 22.399948 0 0 1 10.399976 15.999962 19.199955 19.199955 0 0 1-9.599978 14.399966 213.599499 213.599499 0 0 1-23.199945 18.399957l-27.199937 21.59995-27.999934 22.399947-24.799942 19.199955q-11.999972 9.599978-19.199955 7.199983c-4.799989 0-7.999981-6.399985-7.199983-14.399966V719.998313a35.999916 35.999916 0 0 1 0-8.79998c0-5.599987 0-8.799979-4.799989-10.399975a31.999925 31.999925 0 0 0-13.599968 0H702.398354l-3.199993-15.999963a27.999934 27.999934 0 0 1 0-12.79997v-35.999916z" p-id="8881"></path></svg>