<?xml version="1.0" standalone="no"?><!DOCTYPE svg PUBLIC "-//W3C//DTD SVG 1.1//EN" "http://www.w3.org/Graphics/SVG/1.1/DTD/svg11.dtd"><svg t="1635317080320" class="icon" viewBox="0 0 1024 1024" version="1.1" xmlns="http://www.w3.org/2000/svg" p-id="8735" xmlns:xlink="http://www.w3.org/1999/xlink" width="64" height="64"><defs><style type="text/css"></style></defs><path d="M933.231174 107.290093H564.649563V52.550249A53.280114 53.280114 0 0 0 511.369449 0a52.550249 52.550249 0 0 0-52.550249 52.550249v54.739844H81.479214a36.493229 36.493229 0 0 0 0 72.986457h54.009979a67.147541 67.147541 0 0 0 0 21.166073v729.864576a92.692801 92.692801 0 0 0 91.962936 92.692801h563.455453a91.962937 91.962937 0 0 0 91.962936-92.692801v-729.864576a99.261582 99.261582 0 0 0 0-21.166073h57.659302a36.493229 36.493229 0 1 0 0-72.986457z m-129.915894 821.827512a16.786885 16.786885 0 0 1-16.786886 16.786885H228.911858a16.786885 16.786885 0 0 1-17.51675-16.786885v-729.864576a16.786885 16.786885 0 0 1 17.51675-16.786885h557.616536a16.786885 16.786885 0 0 1 16.786886 16.786885z" p-id="8736"></path><path d="M417.216919 289.756237a34.303635 34.303635 0 0 0-33.573771 33.57377v480.250891a34.303635 34.303635 0 0 0 67.877406 0V323.330007a34.303635 34.303635 0 0 0-34.303635-33.57377zM630.337375 290.486101a34.303635 34.303635 0 0 0-33.57377 34.303635v479.521027a34.303635 34.303635 0 0 0 33.57377 34.303635 33.57377 33.57377 0 0 0 33.573771-34.303635V324.789736A33.57377 33.57377 0 0 0 630.337375 290.486101z" p-id="8737"></path></svg>