<?xml version="1.0" standalone="no"?><!DOCTYPE svg PUBLIC "-//W3C//DTD SVG 1.1//EN" "http://www.w3.org/Graphics/SVG/1.1/DTD/svg11.dtd"><svg t="1634872020717" class="icon" viewBox="0 0 1206 1024" version="1.1" xmlns="http://www.w3.org/2000/svg" p-id="8069" xmlns:xlink="http://www.w3.org/1999/xlink" width="75.375" height="64"><defs><style type="text/css"></style></defs><path d="M329.477476 0.347391h-43.503822a78.690737 78.690737 0 0 0-63.976209 23.671197L23.671197 222.984598a74.852164 74.852164 0 0 0 0 106.840268L140.107897 448.180853a75.491926 75.491926 0 0 0 51.82073 21.112149A83.169072 83.169072 0 0 0 243.749356 448.180853v414.565833A158.021236 158.021236 0 0 0 404.969402 1023.966732h395.372971a157.381474 157.381474 0 0 0 157.381473-157.381473V452.019425a75.491926 75.491926 0 0 0 51.82073 21.112149 74.212402 74.212402 0 0 0 51.820729-21.112149l116.4367-115.796938a74.852164 74.852164 0 0 0 3.19881-106.840269h-3.19881L982.674568 24.018588a78.690737 78.690737 0 0 0-57.578588-23.031435h-49.901443a78.050975 78.050975 0 0 0-63.976209 37.106201 263.58198 263.58198 0 0 1-369.782487 44.783346 269.339839 269.339839 0 0 1-44.783346-44.783346 74.852164 74.852164 0 0 0-63.976209-37.745963z" p-id="8070"></path></svg>