<?xml version="1.0" standalone="no"?><!DOCTYPE svg PUBLIC "-//W3C//DTD SVG 1.1//EN" "http://www.w3.org/Graphics/SVG/1.1/DTD/svg11.dtd"><svg t="1646041396067" class="icon" viewBox="0 0 1024 1024" version="1.1" xmlns="http://www.w3.org/2000/svg" p-id="11087" xmlns:xlink="http://www.w3.org/1999/xlink" width="200" height="200"><defs><style type="text/css"></style></defs><path d="M12.190476 36.571429h975.238095v975.238095H12.190476z" fill="#FFC600" p-id="11088"></path><path d="M999.619048 1024H0V24.380952h999.619048zM24.380952 999.619048h950.857143V48.761905H24.380952z" fill="#E2E3E8" p-id="11089"></path><path d="M97.52381 195.047619v68.022857h85.089523v612.449524h85.089524l476.16-612.449524H828.952381V195.047619h-187.001905L301.592381 620.251429V195.047619H97.52381zM749.958095 490.788571a99.474286 99.474286 0 0 1 82.895238 37.790477q35.59619 44.617143 35.352381 148.48c0 68.754286-11.702857 118.491429-35.59619 148.48a99.718095 99.718095 0 0 1-82.651429 37.302857 104.350476 104.350476 0 0 1-85.820952-40.96c-21.699048-27.062857-32.426667-75.824762-32.426667-146.285715s11.946667-118.247619 35.84-148.23619a98.742857 98.742857 0 0 1 82.407619-36.571429z m0 57.782858a34.864762 34.864762 0 0 0-22.674285 8.045714A55.832381 55.832381 0 0 0 711.92381 585.142857a398.384762 398.384762 0 0 0-7.070477 91.428572 393.752381 393.752381 0 0 0 6.339048 88.015238 62.171429 62.171429 0 0 0 16.335238 31.939047 34.133333 34.133333 0 0 0 22.430476 8.045715 34.864762 34.864762 0 0 0 22.674286-8.045715 55.832381 55.832381 0 0 0 15.36-29.013333 391.314286 391.314286 0 0 0 7.314286-90.940952 390.095238 390.095238 0 0 0-6.582857-88.259048 65.340952 65.340952 0 0 0-16.335239-32.182857 33.889524 33.889524 0 0 0-22.430476-7.558095z" fill="#FFFFFF" p-id="11090"></path></svg>