<?xml version="1.0" standalone="no"?><!DOCTYPE svg PUBLIC "-//W3C//DTD SVG 1.1//EN" "http://www.w3.org/Graphics/SVG/1.1/DTD/svg11.dtd"><svg t="1646041417229" class="icon" viewBox="0 0 1024 1024" version="1.1" xmlns="http://www.w3.org/2000/svg" p-id="11618" xmlns:xlink="http://www.w3.org/1999/xlink" width="200" height="200"><defs><style type="text/css"></style></defs><path d="M12.190476 36.571429h975.238095v975.238095H12.190476z" fill="#FFC600" p-id="11619"></path><path d="M999.619048 1024H0V24.380952h999.619048zM24.380952 999.619048h950.857143V48.761905H24.380952z" fill="#E2E3E8" p-id="11620"></path><path d="M97.52381 195.047619v68.022857h85.089523v612.449524h85.089524l476.16-612.449524H828.952381V195.047619h-187.001905L301.592381 620.251429V195.047619H97.52381zM867.718095 791.893333v64.853334h-243.809524a170.666667 170.666667 0 0 1 24.380953-69.729524 464.944762 464.944762 0 0 1 78.506666-87.527619 532.967619 532.967619 0 0 0 58.026667-59.489524 78.506667 78.506667 0 0 0 14.384762-42.910476A48.761905 48.761905 0 0 0 785.066667 560.761905a53.150476 53.150476 0 0 0-69.485715 0 68.998095 68.998095 0 0 0-14.872381 43.885714l-69.485714-7.070476a113.615238 113.615238 0 0 1 39.009524-82.651429 130.194286 130.194286 0 0 1 81.92-24.380952 118.979048 118.979048 0 0 1 84.845714 29.013333 96.060952 96.060952 0 0 1 30.72 73.142857 126.780952 126.780952 0 0 1-8.777143 46.811429 181.638095 181.638095 0 0 1-28.038095 46.567619A440.56381 440.56381 0 0 1 785.310476 731.428571c-22.186667 20.23619-36.08381 33.645714-41.935238 40.228572a121.904762 121.904762 0 0 0-14.384762 19.504762z" fill="#FFFFFF" p-id="11621"></path></svg>