<?xml version="1.0" standalone="no"?><!DOCTYPE svg PUBLIC "-//W3C//DTD SVG 1.1//EN" "http://www.w3.org/Graphics/SVG/1.1/DTD/svg11.dtd"><svg t="1646041426999" class="icon" viewBox="0 0 1024 1024" version="1.1" xmlns="http://www.w3.org/2000/svg" p-id="12015" xmlns:xlink="http://www.w3.org/1999/xlink" width="200" height="200"><defs><style type="text/css"></style></defs><path d="M12.190476 36.571429h975.238095v975.238095H12.190476z" fill="#FFC600" p-id="12016"></path><path d="M999.619048 1024H0V24.380952h999.619048zM24.380952 999.619048h950.857143V48.761905H24.380952z" fill="#E2E3E8" p-id="12017"></path><path d="M97.52381 195.047619v68.022857h85.089523v612.449524h85.089524l476.16-612.449524H828.952381V195.047619h-187.001905L301.592381 620.251429V195.047619H97.52381zM629.51619 759.954286l67.535239-8.289524a66.072381 66.072381 0 0 0 17.310476 39.740952 48.761905 48.761905 0 0 0 34.377143 13.653334 46.811429 46.811429 0 0 0 36.327619-16.579048 62.415238 62.415238 0 0 0 14.872381-44.129524 58.758095 58.758095 0 0 0-14.140953-41.691428 44.860952 44.860952 0 0 0-34.620952-15.60381 114.590476 114.590476 0 0 0-31.939048 5.36381l7.558095-57.051429a61.19619 61.19619 0 0 0 43.398096-12.190476 43.641905 43.641905 0 0 0 14.872381-34.620953 37.790476 37.790476 0 0 0-39.984762-40.47238 42.422857 42.422857 0 0 0-30.72 12.678095 60.220952 60.220952 0 0 0-15.36 36.327619L633.904762 585.142857a142.384762 142.384762 0 0 1 20.23619-52.662857 92.40381 92.40381 0 0 1 37.790477-31.207619 126.780952 126.780952 0 0 1 54.369523-11.215238A108.495238 108.495238 0 0 1 828.952381 523.459048a83.139048 83.139048 0 0 1-26.819048 137.264762 86.308571 86.308571 0 0 1 51.2 30.23238 87.771429 87.771429 0 0 1 18.773334 56.32A109.958095 109.958095 0 0 1 836.510476 828.952381a121.904762 121.904762 0 0 1-87.283809 33.645714 119.710476 119.710476 0 0 1-81.92-28.525714 109.714286 109.714286 0 0 1-37.790477-74.118095z" fill="#FFFFFF" p-id="12018"></path></svg>