<?xml version="1.0" standalone="no"?><!DOCTYPE svg PUBLIC "-//W3C//DTD SVG 1.1//EN" "http://www.w3.org/Graphics/SVG/1.1/DTD/svg11.dtd"><svg t="1646041420983" class="icon" viewBox="0 0 1024 1024" version="1.1" xmlns="http://www.w3.org/2000/svg" p-id="11751" xmlns:xlink="http://www.w3.org/1999/xlink" width="200" height="200"><defs><style type="text/css"></style></defs><path d="M12.190476 36.571429h975.238095v975.238095H12.190476z" fill="#FFC600" p-id="11752"></path><path d="M97.52381 195.047619v68.022857h85.089523v612.449524h85.089524l476.16-612.449524H828.952381V195.047619h-187.001905L301.592381 620.251429V195.047619H97.52381zM609.52381 787.260952l68.510476-7.070476a59.489524 59.489524 0 0 0 17.798095 37.302857 48.761905 48.761905 0 0 0 33.645714 13.897143 46.567619 46.567619 0 0 0 37.059048-17.798095 80.457143 80.457143 0 0 0 15.36-53.638095 73.142857 73.142857 0 0 0-15.116191-50.224762 50.224762 50.224762 0 0 0-39.253333-16.822857 70.704762 70.704762 0 0 0-53.881905 26.575238l-56.807619-8.289524 35.84-189.68381h184.807619v65.584762H707.047619l-10.971429 61.68381a106.544762 106.544762 0 0 1 126.537143 22.186667 121.904762 121.904762 0 0 1 30.72 87.771428 130.194286 130.194286 0 0 1-26.087619 80.213333 115.565714 115.565714 0 0 1-97.523809 48.761905 121.904762 121.904762 0 0 1-82.16381-27.062857A111.664762 111.664762 0 0 1 609.52381 787.260952z" fill="#FFFFFF" p-id="11753"></path></svg>