<?xml version="1.0" standalone="no"?><!DOCTYPE svg PUBLIC "-//W3C//DTD SVG 1.1//EN" "http://www.w3.org/Graphics/SVG/1.1/DTD/svg11.dtd"><svg t="1646041413392" class="icon" viewBox="0 0 1024 1024" version="1.1" xmlns="http://www.w3.org/2000/svg" p-id="11486" xmlns:xlink="http://www.w3.org/1999/xlink" width="200" height="200"><defs><style type="text/css"></style></defs><path d="M12.190476 36.571429h975.238095v975.238095H12.190476z" fill="#FFC600" p-id="11487"></path><path d="M97.52381 195.047619v68.022857h85.089523v612.449524h85.089524l476.16-612.449524H828.952381V195.047619h-187.001905L301.592381 620.251429V195.047619H97.52381zM893.074286 605.866667l-67.779048 7.558095a48.761905 48.761905 0 0 0-12.921905-30.96381 37.302857 37.302857 0 0 0-27.062857-9.99619 46.32381 46.32381 0 0 0-37.546666 19.992381 169.20381 169.20381 0 0 0-19.260953 82.651428 82.407619 82.407619 0 0 1 65.097143-30.72 99.230476 99.230476 0 0 1 74.849524 33.401905 121.904762 121.904762 0 0 1 31.207619 86.064762A123.611429 123.611429 0 0 1 866.742857 853.333333a119.466667 119.466667 0 0 1-174.811428-9.264762c-24.380952-28.525714-35.59619-75.337143-35.596191-140.434285s12.190476-115.078095 37.059048-144.579048a118.979048 118.979048 0 0 1 96.060952-44.129524 102.4 102.4 0 0 1 68.754286 23.161905 109.470476 109.470476 0 0 1 34.864762 67.779048z m-158.476191 152.380952a79.481905 79.481905 0 0 0 15.60381 52.662857 46.811429 46.811429 0 0 0 35.84 18.529524 40.96 40.96 0 0 0 32.426666-15.36 76.312381 76.312381 0 0 0 12.921905-48.761905 78.506667 78.506667 0 0 0-14.140952-52.175238 43.398095 43.398095 0 0 0-34.620953-16.579047 44.129524 44.129524 0 0 0-34.133333 15.847619 68.510476 68.510476 0 0 0-13.897143 45.83619z" fill="#FFFFFF" p-id="11488"></path></svg>