<?xml version="1.0" standalone="no"?><!DOCTYPE svg PUBLIC "-//W3C//DTD SVG 1.1//EN" "http://www.w3.org/Graphics/SVG/1.1/DTD/svg11.dtd"><svg t="1646041423710" class="icon" viewBox="0 0 1024 1024" version="1.1" xmlns="http://www.w3.org/2000/svg" p-id="11883" xmlns:xlink="http://www.w3.org/1999/xlink" width="200" height="200"><defs><style type="text/css"></style></defs><path d="M12.190476 36.571429h975.238095v975.238095H12.190476z" fill="#FFC600" p-id="11884"></path><path d="M97.52381 195.047619v68.022857h85.089523v612.449524h85.089524l476.16-612.449524H828.952381V195.047619h-187.001905L301.592381 620.251429V195.047619H97.52381zM656.335238 586.361905v-64.853334h238.933333v50.712381a373.028571 373.028571 0 0 0-60.220952 83.626667 483.961905 483.961905 0 0 0-46.567619 115.809524 423.009524 423.009524 0 0 0-15.847619 109.470476h-67.291429a459.337143 459.337143 0 0 1 31.207619-154.087619 516.632381 516.632381 0 0 1 78.506667-140.678095z" fill="#FFFFFF" p-id="11885"></path></svg>