<?xml version="1.0" standalone="no"?><!DOCTYPE svg PUBLIC "-//W3C//DTD SVG 1.1//EN" "http://www.w3.org/Graphics/SVG/1.1/DTD/svg11.dtd"><svg t="1679912617729" class="icon" viewBox="0 0 1024 1024" version="1.1" xmlns="http://www.w3.org/2000/svg" p-id="3997" xmlns:xlink="http://www.w3.org/1999/xlink" width="200" height="200"><path d="M512 64C264.608 64 64 264.608 64 512s200.608 448 448 448 448-200.608 448-448S759.392 64 512 64z m-32 232a8 8 0 0 1 8-8h48a8 8 0 0 1 8 8v272a8 8 0 0 1-8 8h-48a8 8 0 0 1-8-8v-272zM512 736a48 48 0 1 1 0-96 48 48 0 0 1 0 96z" fill="#FAAD14" p-id="3998"></path></svg>