<?xml version="1.0" standalone="no"?><!DOCTYPE svg PUBLIC "-//W3C//DTD SVG 1.1//EN" "http://www.w3.org/Graphics/SVG/1.1/DTD/svg11.dtd"><svg class="icon" width="64px" height="64.00px" viewBox="0 0 1024 1024" version="1.1" xmlns="http://www.w3.org/2000/svg"><path d="M304 560h166.4c16 0 28.8-12.8 28.8-32s-12.8-32-28.8-32H304c-16 0-28.8 12.8-28.8 32s12.8 32 28.8 32zM470.4 649.6H307.2c-19.2 0-32 12.8-32 32s12.8 32 32 32h163.2c19.2 0 28.8-12.8 28.8-32s-12.8-32-28.8-32z" fill="#3841DB" /><path d="M832 646.4l-128 124.8-67.2-67.2c-12.8-12.8-32-12.8-44.8 0s-12.8 32 0 44.8l89.6 89.6c6.4 6.4 16 9.6 22.4 9.6s16-3.2 22.4-9.6l150.4-147.2c12.8-12.8 12.8-32 0-44.8s-32-9.6-44.8 0z" fill="#4C4D4E" /><path d="M755.2 169.6H672v-32c0-19.2-12.8-32-32-32s-32 12.8-32 32v32h-204.8v-32c0-19.2-12.8-32-32-32s-32 12.8-32 32v32H268.8C192 169.6 131.2 230.4 131.2 307.2v473.6c0 76.8 60.8 137.6 137.6 137.6H576v-64H268.8c-41.6 0-73.6-32-73.6-73.6V406.4h630.4V544h64V307.2c0-73.6-60.8-137.6-134.4-137.6zM198.4 342.4V307.2c0-41.6 32-73.6 73.6-73.6h70.4v9.6c0 19.2 12.8 32 32 32s32-12.8 32-32v-9.6H608v9.6c0 19.2 12.8 32 32 32s32-12.8 32-32v-9.6h80c41.6 0 73.6 32 73.6 73.6v35.2H198.4z" fill="#4C4D4E" /></svg>