<?xml version="1.0" standalone="no"?><!DOCTYPE svg PUBLIC "-//W3C//DTD SVG 1.1//EN" "http://www.w3.org/Graphics/SVG/1.1/DTD/svg11.dtd"><svg class="icon" width="64px" height="64.00px" viewBox="0 0 1024 1024" version="1.1" xmlns="http://www.w3.org/2000/svg"><path d="M764.8 57.6H172.8C121.6 57.6 83.2 96 83.2 147.2v729.6c0 51.2 41.6 92.8 92.8 92.8h169.6c16 0 28.8-16 28.8-32v-3.2c0-16-16-28.8-32-28.8H169.6c-16-3.2-25.6-12.8-28.8-28.8V144c0-9.6 9.6-25.6 19.2-25.6h614.4c9.6 0 22.4 16 22.4 25.6v214.4c0 19.2 9.6 32 28.8 32h6.4c16-3.2 25.6-16 22.4-32V147.2c0-51.2-41.6-89.6-89.6-89.6z" fill="#4C4D4E" /><path d="M473.6 582.4H265.6c-6.4-3.2-12.8-3.2-19.2 0-19.2 6.4-28.8 25.6-22.4 41.6 6.4 19.2 22.4 28.8 41.6 22.4h208c6.4 3.2 12.8 3.2 19.2 0 19.2-6.4 28.8-22.4 22.4-41.6-6.4-16-25.6-25.6-41.6-22.4zM620.8 233.6H262.4c-19.2 0-35.2 12.8-35.2 32s19.2 32 35.2 32h358.4c19.2 0 35.2-12.8 35.2-32s-16-32-35.2-32zM572.8 406.4H256c-16 3.2-28.8 16-28.8 35.2s16 28.8 35.2 28.8H579.2c16-3.2 28.8-16 28.8-35.2s-16-28.8-35.2-28.8z" fill="#4C4D4E" /><path d="M924.8 528l-118.4-105.6c-9.6-9.6-22.4-12.8-35.2-12.8-12.8 0-22.4 6.4-32 16l-288 326.4c-12.8 12.8-19.2 32-16 51.2l3.2 160 150.4-16c12.8 0 25.6-3.2 35.2-12.8 6.4-3.2 9.6-9.6 16-16l147.2-163.2c9.6-12.8 12.8-28.8 3.2-44.8-12.8-12.8-35.2-12.8-48 0l-150.4 163.2-3.2 3.2-89.6 16 3.2-96v-6.4l195.2-217.6 96 99.2c3.2 9.6 9.6 16 16 19.2 16 9.6 35.2 3.2 44.8-16l73.6-83.2c19.2-19.2 16-48-3.2-64z m-99.2 86.4l-86.4-89.6 41.6-44.8 92.8 80-48 54.4z" fill="#3841DB" /></svg>