<?xml version="1.0" standalone="no"?><!DOCTYPE svg PUBLIC "-//W3C//DTD SVG 1.1//EN" "http://www.w3.org/Graphics/SVG/1.1/DTD/svg11.dtd"><svg class="icon" width="64px" height="64.00px" viewBox="0 0 1024 1024" version="1.1" xmlns="http://www.w3.org/2000/svg"><path d="M512 912C291.2 912 112 732.8 112 512S291.2 112 512 112 912 291.2 912 512 732.8 912 512 912z m0-736C326.4 176 176 326.4 176 512S326.4 848 512 848 848 697.6 848 512 697.6 176 512 176z" fill="#4C4D4E" /><path d="M710.4 480h-163.2V313.6c0-19.2-16-32-32-32s-32 16-32 32V512c0 19.2 16 32 32 32h198.4c19.2 0 32-16 32-32s-16-32-35.2-32z" fill="#3841DB" /></svg>