<?xml version="1.0" standalone="no"?><!DOCTYPE svg PUBLIC "-//W3C//DTD SVG 1.1//EN" "http://www.w3.org/Graphics/SVG/1.1/DTD/svg11.dtd"><svg class="icon" width="64px" height="64.00px" viewBox="0 0 1024 1024" version="1.1" xmlns="http://www.w3.org/2000/svg"><path d="M512 908.8C291.2 908.8 112 732.8 112 512S291.2 115.2 512 115.2 912 291.2 912 512 732.8 908.8 512 908.8z m0-729.6C326.4 179.2 176 326.4 176 512S326.4 844.8 512 844.8 848 694.4 848 512 697.6 179.2 512 179.2z" fill="#4C4D4E" /><path d="M556.8 512l115.2-115.2c12.8-12.8 12.8-32 0-44.8s-32-12.8-44.8 0L512 467.2 396.8 352c-12.8-12.8-32-12.8-44.8 0s-12.8 32 0 44.8l115.2 115.2-115.2 115.2c-12.8 12.8-12.8 32 0 44.8 6.4 6.4 16 9.6 22.4 9.6s16-3.2 22.4-9.6l115.2-115.2 115.2 115.2c6.4 6.4 16 9.6 22.4 9.6s16-3.2 22.4-9.6c12.8-12.8 12.8-32 0-44.8L556.8 512z" fill="#3841DB" /></svg>