<?xml version="1.0" standalone="no"?><!DOCTYPE svg PUBLIC "-//W3C//DTD SVG 1.1//EN" "http://www.w3.org/Graphics/SVG/1.1/DTD/svg11.dtd"><svg class="icon" width="64px" height="64.00px" viewBox="0 0 1024 1024" version="1.1" xmlns="http://www.w3.org/2000/svg"><path d="M592 758.4h-198.4c-19.2 0-32-12.8-32-32s12.8-32 32-32h198.4c19.2 0 32 12.8 32 32s-16 32-32 32z" fill="#3841DB" /><path d="M806.4 851.2H768v-169.6c0-70.4-118.4-140.8-176-169.6v-22.4c57.6-28.8 176-96 176-169.6V163.2h38.4c19.2 0 32-12.8 32-32s-12.8-32-32-32H179.2c-19.2 0-32 12.8-32 32s12.8 32 32 32H224V320c0 70.4 118.4 140.8 176 169.6v22.4c-60.8 28.8-176 96-176 166.4v169.6H179.2c-19.2 0-32 12.8-32 32s12.8 32 32 32h630.4c19.2 0 32-12.8 32-32s-16-28.8-35.2-28.8zM288 678.4c0-22.4 70.4-76.8 147.2-115.2 12.8-3.2 22.4-12.8 25.6-25.6V464v-6.4c-3.2-12.8-12.8-22.4-25.6-25.6-73.6-32-147.2-86.4-147.2-112V163.2h416V320c0 22.4-70.4 76.8-147.2 115.2-12.8 3.2-22.4 12.8-25.6 25.6V540.8c3.2 12.8 12.8 22.4 25.6 25.6 70.4 35.2 147.2 89.6 147.2 115.2v169.6H288v-172.8z" fill="#4C4D4E" /></svg>