<?xml version="1.0" standalone="no"?><!DOCTYPE svg PUBLIC "-//W3C//DTD SVG 1.1//EN" "http://www.w3.org/Graphics/SVG/1.1/DTD/svg11.dtd"><svg t="1709188693595" class="icon" viewBox="0 0 1024 1024" version="1.1" xmlns="http://www.w3.org/2000/svg" p-id="8941" xmlns:xlink="http://www.w3.org/1999/xlink" width="64" height="64"><path d="M885.76 0H143.36C66.56 0 0 66.56 0 143.36v732.16C0 957.44 66.56 1024 143.36 1024h732.16c81.92 0 143.36-66.56 143.36-143.36V143.36C1024 66.56 962.56 5.12 885.76 0zM512 855.04c-61.44 0-122.88-15.36-174.08-46.08l-10.24-5.12-128 35.84 35.84-128-10.24-15.36c-35.84-56.32-51.2-117.76-51.2-179.2 0-189.44 153.6-343.04 343.04-343.04 92.16 0 179.2 35.84 240.64 102.4 66.56 66.56 102.4 148.48 102.4 240.64-5.12 184.32-158.72 337.92-348.16 337.92z" fill="#00CC61" p-id="8942"></path><path d="M680.96 629.76l-71.68-35.84c-10.24-5.12-15.36-5.12-25.6 5.12-5.12 10.24-25.6 35.84-35.84 40.96-5.12 5.12-10.24 10.24-25.6 5.12-10.24-5.12-46.08-15.36-87.04-51.2-30.72-30.72-51.2-61.44-61.44-76.8-5.12-10.24 0-15.36 5.12-20.48 5.12-5.12 10.24-10.24 15.36-20.48 15.36-10.24 15.36-15.36 20.48-20.48 5.12-5.12 0-15.36 0-20.48-5.12-5.12-25.6-56.32-35.84-76.8-10.24-20.48-15.36-20.48-25.6-20.48h-20.48c-5.12 0-15.36 5.12-25.6 15.36-10.24 10.24-40.96 35.84-40.96 87.04s40.96 102.4 46.08 112.64c5.12 5.12 76.8 117.76 184.32 163.84 92.16 35.84 107.52 30.72 128 25.6 20.48 0 61.44-25.6 71.68-51.2 10.24-25.6 10.24-46.08 5.12-51.2 0-5.12-10.24-5.12-20.48-10.24z" fill="#00CC61" p-id="8943"></path></svg>