<?xml version="1.0" standalone="no"?><!DOCTYPE svg PUBLIC "-//W3C//DTD SVG 1.1//EN" "http://www.w3.org/Graphics/SVG/1.1/DTD/svg11.dtd"><svg t="1680074300576" class="icon" viewBox="0 0 1024 1024" version="1.1" xmlns="http://www.w3.org/2000/svg" p-id="4087" xmlns:xlink="http://www.w3.org/1999/xlink" width="200" height="200"><path d="M601.216 163.616a13.12 13.12 0 0 1 8.736 3.136v708.48a13.12 13.12 0 0 1-8.736 3.168 9.536 9.536 0 0 1-6.912-2.656l-224.64-205.376-19.68-17.952H196.352v-262.848h153.632l19.648-17.92 224.64-205.408a9.536 9.536 0 0 1 6.944-2.624m0-67.616c-18.688 0-37.76 6.4-53.312 20.608l-224.64 205.376H185.44c-31.744 0-57.44 23.744-57.44 53.056v291.904c0 29.312 25.696 53.088 57.44 53.088h137.824l224.64 205.376a78.272 78.272 0 0 0 53.312 20.576c39.36 0 77.12-28.256 77.12-70.88V166.912c0-42.624-37.76-70.912-77.12-70.912z m292.608 449.152h-126.944c-18.88 0-34.176-15.136-34.176-33.824 0-18.656 15.296-33.792 34.176-33.792h126.944c18.88 0 34.176 15.136 34.176 33.792 0 18.688-15.296 33.824-34.176 33.824z m10.144-258.08l-109.92 62.784c-10.592 6.144-23.68 6.176-34.304 0.16a33.728 33.728 0 0 1-17.152-29.408c0-12.128 6.624-23.328 17.28-29.312l109.92-62.784c10.56-6.144 23.68-6.176 34.304-0.16 10.624 6.08 17.184 17.28 17.152 29.408 0 12.128-6.624 23.296-17.28 29.312z m-34.176 502.272l-109.92-62.784a33.76 33.76 0 0 1-17.28-29.312c-0.032-12.16 6.496-23.36 17.152-29.408a34.496 34.496 0 0 1 34.304 0.16l109.92 62.784c10.656 5.984 17.28 17.184 17.28 29.312 0.032 12.16-6.528 23.36-17.152 29.408a34.496 34.496 0 0 1-34.304-0.16z" p-id="4088"></path></svg>