<?xml version="1.0" standalone="no"?><!DOCTYPE svg PUBLIC "-//W3C//DTD SVG 1.1//EN" "http://www.w3.org/Graphics/SVG/1.1/DTD/svg11.dtd"><svg t="1679456180855" class="icon" viewBox="0 0 1024 1024" version="1.1" xmlns="http://www.w3.org/2000/svg" p-id="3997" xmlns:xlink="http://www.w3.org/1999/xlink" width="200" height="200"><path d="M487.008 73.92a53.76 53.76 0 0 1 63.584 1.024l397.76 303.2 0.608 0.48a29.312 29.312 0 0 1 10.56 28.096 29.632 29.632 0 0 1 0.48 4.512v410.048c0 75.84-61.824 137.472-138.56 138.688l-2.304 0.032H204.864c-77.024 0-139.584-60.864-140.832-136.416L64 821.28V411.936c0-1.76 0.16-3.52 0.48-5.184a29.344 29.344 0 0 1 11.52-28.864l410.208-303.392 0.8-0.608z m412.96 375.296l-353.28 283.392a53.76 53.76 0 0 1-65.696 1.088l-0.768-0.608-356.16-277.216v365.408c0 43.52 35.456 78.88 79.456 79.584H819.136c44.16 0 80.096-34.912 80.8-78.272V449.216zM518.016 124.896L147.616 398.848l365.472 284.48 359.36-288.288-354.432-270.144z" p-id="3998"></path></svg>