<?xml version="1.0" standalone="no"?><!DOCTYPE svg PUBLIC "-//W3C//DTD SVG 1.1//EN" "http://www.w3.org/Graphics/SVG/1.1/DTD/svg11.dtd"><svg t="1679993937549" class="icon" viewBox="0 0 1024 1024" version="1.1" xmlns="http://www.w3.org/2000/svg" p-id="4087" xmlns:xlink="http://www.w3.org/1999/xlink" width="200" height="200"><path d="M567.36 32c18.528 0 36.288 7.232 49.376 20.096l258.816 254.208c13.12 12.832 20.448 30.272 20.448 48.48v573.984C896 968.864 859.68 992 826.496 992H197.504C164.32 992 128 968.864 128 928.768V95.232C128 55.136 164.32 32 197.504 32H567.36z m-20.448 68.576H197.792v822.848h628.384V375.744h-279.264V100.576zM721.44 752v68.576H302.56V752h418.88zM616.736 149.056v158.08h160.96l-160.96-158.08z" p-id="4088"></path></svg>