<?xml version="1.0" encoding="utf-8"?>
<!-- Generator: Adobe Illustrator 21.0.0, SVG Export Plug-In . SVG Version: 6.00 Build 0)  -->
<svg version="1.1" id="图层_1" xmlns="http://www.w3.org/2000/svg" xmlns:xlink="http://www.w3.org/1999/xlink" x="0px" y="0px"
	 viewBox="0 0 821 514.2" style="enable-background:new 0 0 821 514.2;" xml:space="preserve">
<style type="text/css">
	.st0{fill:#F2F2F2;stroke:#263D78;stroke-width:0.59;stroke-miterlimit:10;}
	.st1{fill:none;stroke:#263D78;stroke-width:0.59;stroke-miterlimit:10;}
	.st2{opacity:0.1;fill:#1D89FF;enable-background:new    ;}
	.st3{fill:#FFFFFF;stroke:#263D78;stroke-width:0.62;stroke-miterlimit:10;}
	.st4{fill:#263D78;stroke:#263D78;stroke-width:0.62;stroke-miterlimit:10;}
	.st5{fill:none;stroke:#263D78;stroke-width:0.52;stroke-miterlimit:10;}
	.st6{fill:#FFFFFF;stroke:#263D78;stroke-width:0.52;stroke-miterlimit:10;}
	.st7{fill:#263D78;}
	.st8{fill:#FFFFFF;stroke:#263D78;stroke-width:0.59;stroke-miterlimit:10;}
	.st9{fill:#FA8B7C;}
	.st10{fill:#FFBD2E;}
	.st11{fill:#28C940;}
	.st12{opacity:0.21;fill:#3841DB;}
	.st13{opacity:0.6;fill:#FA8B7C;enable-background:new    ;}
	.st14{fill:#FFFFFF;}
	.st15{fill:url(#SVGID_1_);}
	
		.st16{opacity:0.5;fill:none;stroke:#263D78;stroke-width:0.59;stroke-miterlimit:10;stroke-dasharray:2.07,3.11;enable-background:new    ;}
	.st17{fill:none;stroke:#121E30;stroke-width:0.52;stroke-miterlimit:10;}
	.st18{fill:#1D89FF;}
	.st19{fill:none;stroke:#20CE77;stroke-width:0.35;stroke-miterlimit:10;}
	.st20{fill:#FFCB48;}
	.st21{fill:#F99393;}
	.st22{fill:#3841DB;}
	.st23{fill:#E0ADAD;}
	.st24{fill:#FFC2C2;}
	.st25{fill:#2A365A;}
	.st26{fill:#263D78;stroke:#263D78;stroke-width:0.6;stroke-miterlimit:10;}
	.st27{fill:#1B2F5B;}
	.st28{fill:#333639;}
	.st29{fill:#F85C36;}
	.st30{fill:#6776ED;}
	.st31{fill:none;stroke:#000000;stroke-width:0.65;stroke-linecap:round;stroke-miterlimit:10;}
	.st32{fill:#F95D3A;}
	.st33{fill:none;stroke:#263D78;stroke-width:1.41;stroke-miterlimit:10;}
	.st34{fill:#FFFFFF;stroke:#263D78;stroke-width:1.08;stroke-miterlimit:10;}
	.st35{fill:url(#SVGID_2_);}
	.st36{fill:url(#SVGID_3_);}
	.st37{fill:#EDB1A6;}
	.st38{fill:#262656;}
	.st39{fill:url(#SVGID_4_);}
	.st40{fill:#B6DCFF;}
	.st41{fill:#FFFFFF;stroke:#263D78;stroke-width:0.53;stroke-miterlimit:10;}
	.st42{fill:#F9603F;}
	.st43{opacity:0.36;fill:#1D89FF;enable-background:new    ;}
	.st44{opacity:0.4;fill:#FA8B7C;enable-background:new    ;}
	.st45{fill:#FFFFFF;stroke:#263D78;stroke-width:0.28;stroke-linecap:round;stroke-miterlimit:10;}
	.st46{fill:none;stroke:#263D78;stroke-width:0.28;stroke-linecap:round;stroke-miterlimit:10;}
	.st47{fill:none;stroke:#1D0F74;stroke-width:0.19;stroke-miterlimit:10;}
	.st48{fill:#2A1B5E;}
	.st49{fill:url(#SVGID_5_);}
	.st50{fill:none;stroke:#000000;stroke-width:0.47;stroke-miterlimit:10;}
	.st51{fill:#FBBFA9;}
	.st52{fill:#F97F02;}
	.st53{fill:#0F2149;}
	.st54{fill:#4D6FAD;}
	.st55{fill:#CCCCCC;}
	.st56{fill:#F2F2F2;}
	.st57{fill:#3F3D56;}
</style>
<path class="st0" d="M608.5,373.6V11.4L189.8,34.5v304.5L608.5,373.6z"/>
<path class="st1" d="M785.5,462.1L0,373.4"/>
<path class="st1" d="M820.9,466.1l-25.7-2.9"/>
<ellipse class="st2" cx="104.7" cy="455.6" rx="56.5" ry="13.6"/>
<path class="st3" d="M80.2,423l6.9,31c0,2.6,7.5,4.8,16.8,4.8s16.8-2.1,16.8-4.8l6.9-31H80.2z"/>
<path class="st3" d="M76.6,413.9c-0.2,0-0.4,0.2-0.4,0.4c0,0,0,0.1,0,0.1l2,8.6c0,4,11.5,7.3,25.7,7.3s25.7-3.2,25.7-7.3l2-8.6
	c0-0.2-0.1-0.4-0.3-0.5c0,0-0.1,0-0.1,0H76.6z"/>
<ellipse class="st4" cx="103.9" cy="413.9" rx="27.8" ry="7.9"/>
<path class="st5" d="M91.3,405.5c1,2.6,1.4,8.5,0.8,11.6"/>
<path class="st5" d="M85.3,377.3c10.3,6.8,12.7,22.3,11.5,38.1"/>
<path class="st5" d="M89.2,365.6c4.9,11.6,6.9,28.1,6.9,51.5"/>
<path class="st5" d="M107.2,370.9c-3.5,9.6-5.1,24-5.1,44.4"/>
<path class="st5" d="M102.2,415.4c2.2-15.3,13.6-34.5,33.9-43.4"/>
<path class="st6" d="M163.6,420.1c-11.9-21.8-41.2-11.7-47.4-33.8C138.2,364,164.1,387,163.6,420.1z"/>
<path class="st7" d="M107,371.6c21.3,1.4,36.5-8.7,36.7-25.4l-12.1-1.4l13.4-6.4l5.4-23.9C121.1,314.4,89.3,344.8,107,371.6
	L107,371.6z"/>
<path class="st6" d="M89.4,366.6c18.2-31.2-29.2-33.6-39.2-43.2C48.8,341.8,80.6,353.5,89.4,366.6z"/>
<path class="st7" d="M85.8,377.8c2.1-17.2-22.3-13.7-28.1-20.4C57.7,357.4,58.6,382.4,85.8,377.8z"/>
<path class="st6" d="M92,409.1c-7.2-15.8-41.2-11-44.2-21.8c3.8-1,7.7-1.8,11.6-2.3l4.5,3.9l1.2-4.4C79.5,383.5,96.3,387.9,92,409.1
	z"/>
<path class="st6" d="M134.6,372.4c6.9,0,14.6-0.9,19.3-2.5l0.7-3.9l3.2,1.2c7.6-8.4,7.7-21.2,3.7-36.5
	C161.2,348.5,152,362.3,134.6,372.4z"/>
<path class="st6" d="M104,416.4c1-5.7,2.9-10.7,7.6-14l4.1,3l-0.5-6.2c3.3-2,6.1-4.5,8.4-7.5c8.4,9.1,5.6,18.1,0.9,24.6L104,416.4z"
	/>
<path class="st8" d="M604.4,373.1V14.4L192.8,37.2v301.5L604.4,373.1z"/>
<ellipse transform="matrix(0.3401 -0.9404 0.9404 0.3401 91.6999 226.6714)" class="st9" cx="207.4" cy="48" rx="2.1" ry="1.8"/>
<ellipse transform="matrix(0.3437 -0.9391 0.9391 0.3437 97.3008 234.7591)" class="st10" cx="216.6" cy="47.8" rx="2.1" ry="1.8"/>
<ellipse transform="matrix(0.3437 -0.9391 0.9391 0.3437 103.3698 242.3856)" class="st11" cx="225.1" cy="47.2" rx="2.1" ry="1.8"/>
<path class="st12" d="M297.1,238.3l-24.9-29.7l0.1,13.8l-52.1-1l13,14.9l-13,13.6l52,2v9.8L297.1,238.3z"/>
<path class="st13" d="M522.8,245.1l-25.2-32.7v15l-81-2.4c-0.3,10.2-0.4,14.1-1.1,32.9l82.1,2.8v11.7L522.8,245.1z"/>
<path class="st14" d="M414.5,241.6l-20.9,25l0.8-53.6L414.5,241.6z"/>
<path class="st2" d="M407.3,241.3L385,214v10.7l-91-1.9l11.4,15.7L294,252.7l91,3.1v10.6L407.3,241.3z"/>
<image style="overflow:visible;opacity:0.25;enable-background:new    ;" width="526" height="272" xlink:href="82595178D6CCD93A.png"  transform="matrix(0.2395 0 0 0.2391 287.68 206.1164)">
</image>
<linearGradient id="SVGID_1_" gradientUnits="userSpaceOnUse" x1="293.99" y1="234.4564" x2="407.28" y2="234.4564">
	<stop  offset="0" style="stop-color:#8FE2DC"/>
	<stop  offset="1" style="stop-color:#3841DB"/>
</linearGradient>
<path class="st15" d="M407.3,235.5L385,208.3V219l-91-1.9l11.4,15.7L294,247l91,3.1v10.6L407.3,235.5z"/>
<path class="st2" d="M558.3,342.5L220.7,319V317l337.7,23.5V342.5z"/>
<path class="st2" d="M558.3,326.3L220.7,306v-2.1l337.7,20.2V326.3z"/>
<path class="st2" d="M558.3,311l-337.7-18V291l337.7,18V311z"/>
<path class="st2" d="M558.3,294.5l-337.7-14.6v-2.1l337.7,14.6V294.5z"/>
<g>
	<path class="st14" d="M227.8,276.4h5.3v6.4h-5.3V276.4z"/>
	<path class="st14" d="M263.7,277.9h5.3v6.4h-5.3V277.9z"/>
	<path class="st14" d="M240,290h5.3v6.4H240V290z"/>
	<path class="st14" d="M274.3,292.3h5.3v6.4h-5.3V292.3z"/>
	<path class="st14" d="M361.9,282.1h5.3v6.4h-5.3V282.1z"/>
	<path class="st14" d="M404.6,299.1h5.3v6.4h-5.3V299.1z"/>
	<path class="st14" d="M486.3,302.9h5.3v6.4h-5.3V302.9z"/>
	<path class="st14" d="M501.5,304.2h5.3v6.4h-5.3V304.2z"/>
	<path class="st14" d="M541.6,290h5.3v6.4h-5.3V290z"/>
	<path class="st14" d="M530.8,321h5.3v6.4h-5.3V321z"/>
	<path class="st14" d="M527.1,336.6h5.3v6.4h-5.3V336.6z"/>
	<path class="st14" d="M498.9,334.8h5.3v6.4h-5.3V334.8z"/>
	<path class="st14" d="M431.1,329.8h5.3v6.4h-5.3V329.8z"/>
	<path class="st14" d="M392,327.4h5.3v6.4H392V327.4z"/>
	<path class="st14" d="M324.3,308.3h5.3v6.4h-5.3V308.3z"/>
	<path class="st14" d="M311.9,307.4h5.3v6.4h-5.3V307.4z"/>
	<path class="st14" d="M252.1,304.7h5.3v6.4h-5.3V304.7z"/>
	<path class="st14" d="M257.1,317.2h5.3v6.4h-5.3V317.2z"/>
</g>
<g>
	<path class="st16" d="M345.6,110.2l-37.7-33.5l-24.6,1.2"/>
	<path class="st17" d="M236.9,67.7l29-1.5"/>
	<path class="st18" d="M238.4,69.1l-2.9,0.2v-2.9l2.9-0.2V69.1z"/>
	<path class="st17" d="M236.9,79.3l29-1.2"/>
	<path class="st18" d="M238.4,80.7l-2.9,0.1v-2.9l2.9-0.1V80.7z"/>
	<path class="st17" d="M236.9,90.6l29-1.2"/>
	<path class="st18" d="M238.4,92.1l-2.9,0.1v-2.9l2.9-0.1V92.1z"/>
	<ellipse transform="matrix(0.5 -0.866 0.866 0.5 50.1604 266.4885)" class="st19" cx="255.9" cy="89.8" rx="1.8" ry="1.6"/>
	<path class="st20" d="M252.6,78.6L250,81l-2.5-2.3l2.5-2.4L252.6,78.6z"/>
	<ellipse transform="matrix(0.5521 -0.8338 0.8338 0.5521 53.1528 233.5197)" class="st21" cx="243.9" cy="67.3" rx="2" ry="1.8"/>
</g>
<path class="st18" d="M283.3,280.8l-14.3-0.6v-2l14.3,0.6V280.8z"/>
<path class="st22" d="M501.5,306.2l-10-0.5v-2.1l10,0.5V306.2z"/>
<path class="st22" d="M431.1,331.9l-33.9-2.4v-2.1l33.9,2.4V331.9z"/>
<path class="st18" d="M558.3,324.4l-22.2-1.4V321l22.2,1.4V324.4z"/>
<path class="st22" d="M324.3,310.4l-7.1-0.4v-2l7.1,0.4V310.4z"/>
<path class="st23" d="M593.4,287.8c0.4-0.2,1.9,1.4,4.5,3.9c1,1,3.8,2.9,4.3,3.8c1.7,2.7,4.6-3.2,4.6-3.2
	c-5.6-4.4-12.3-10.8-14.9-9.4L593.4,287.8z"/>
<path class="st24" d="M498.8,448.4l-3.5,18l10.5,1.9l4.3-19L498.8,448.4z"/>
<circle class="st25" cx="609.3" cy="239.5" r="19"/>
<circle class="st25" cx="596.9" cy="238.4" r="10.9"/>
<path class="st26" d="M536.6,285.8l-5.5-22.1h56.1l10.7,38.7h-55.1L536.6,285.8z"/>
<path class="st14" d="M532.8,264.6h53.3l9.8,36.7H542L532.8,264.6z"/>
<path class="st24" d="M600.8,297.2c-1.4-2.7-3-5.2-4.7-7.7c-0.8-1.1,0-1.3-0.5-2.3s-0.3-2.2-1.5-3.1c-2.3-1.3-5.2-1.9-7.3-2.7
	c-1.2-0.9-1.3-3,1.4-2.6l3.6,0.5l-1.1-3.9c0,0,8,3.1,11.1,6.7c2.8,3.3,4.1,9.7,4.1,9.7L600.8,297.2z"/>
<path class="st24" d="M614.6,267.5c-9.5,2.7-19.4-2.9-22.1-12.4c0,0,0,0,0,0l-3.4-12.6l17.9-2.1L614.6,267.5z"/>
<path class="st24" d="M605.4,263.3l17.3-4.8l7.9,28.2l-17.3,4.8L605.4,263.3z"/>
<path class="st24" d="M551.1,435.9l4.2,19.9l9.7-2.1l-4.1-19.9L551.1,435.9z"/>
<path class="st27" d="M532.7,396.8l10.5,43.6l31-6l-6.3-36.7L532.7,396.8z"/>
<path class="st28" d="M601.4,351.5l-91.2,18.7l-27.1,76.6l39.2,6.9l15.7-56.8l75-3C602,382.5,601.4,351.5,601.4,351.5L601.4,351.5z"
	/>
<path class="st29" d="M596.3,335.1l-32.9,45.5l50.6,16.2l-11.1-59.3L596.3,335.1z"/>
<path class="st14" d="M614,278.7l0.6,5.8l20.1-4.5l-4.2-5L614,278.7z"/>
<path class="st30" d="M609.5,282.1l-4.5,9.6l31.6-10.9l-4.2-5L609.5,282.1z"/>
<path class="st31" d="M630.6,251.9l-1.3,0.8l1.1,1.2"/>
<ellipse class="st2" cx="516.4" cy="486.7" rx="71.9" ry="17.3"/>
<ellipse class="st2" cx="605.9" cy="495.3" rx="59" ry="14.2"/>
<path class="st24" d="M550.7,323.1c0,0-13.2-13.9-15.1-17.1s-3.3-8.5-3-10.9c0.2-1.1,1.1-1.8,2.2-1.8c0.5-0.8,1.4-1.3,2.4-1.4
	c0,0-0.8-8.7-0.1-9.4s1.6-0.5,1.8,0.2c0.3,0.9,1.7,10,1.7,10c0.6,1.2,1.6,2.1,2.8,2.5c0.3-1.3-2.1-4.2-2.1-5.6c0-1,0.9-1.3,1.8-0.8
	s2.4,3,3.2,4.3c0.4,0.6,0.6,1.3,0.7,2l1,6.7c0.3,2.1,1.3,4.2,2.7,5.8l8.4,9.1L550.7,323.1z"/>
<path class="st32" d="M636.1,279.8l-26.9,7.1l-30.1,32.5l-22.7-14.1l-16.2,16.7l37,30.9l22.1-14.5c0,0-4.8,37.5-10.8,40.3
	c1.4,5.2,5.2-3.5,8.4-2.2l11.2-39.9l34.8-22.8l6.5-29.4L636.1,279.8z"/>
<path class="st7" d="M591.8,400.4h27.1v6.5h-27.1V400.4z"/>
<path class="st7" d="M600.6,406.9h9.6v28.3h-9.6V406.9z"/>
<circle class="st33" cx="564.4" cy="490" r="5.8"/>
<circle class="st33" cx="605.4" cy="481.8" r="5.8"/>
<circle class="st33" cx="646.1" cy="489.5" r="5.8"/>
<path class="st7" d="M653.8,481.4C653.8,481.4,653.8,481.5,653.8,481.4c-1.5-0.5-48.5-12.1-48.5-12.1l-48.5,13.6v-5.8l48.5-19.5
	c0,0,47.5,17.6,48.4,18.1l0,0L653.8,481.4z"/>
<path class="st7" d="M598.4,435.2h14v29.2h-14V435.2z"/>
<path class="st7" d="M489.7,447l-1.7,7l27.2,5l1.7-7.9L489.7,447z"/>
<path class="st27" d="M547.1,438.8l1.8,7.1l22.2-3.8l-1.6-7.8L547.1,438.8z"/>
<path class="st34" d="M564.4,477.8V490"/>
<path class="st34" d="M605.4,466.4v15.5"/>
<path class="st34" d="M646.1,473.9v15.6"/>
<linearGradient id="SVGID_2_" gradientUnits="userSpaceOnUse" x1="463.75" y1="472.5364" x2="512.38" y2="472.5364">
	<stop  offset="0" style="stop-color:#FFD115"/>
	<stop  offset="1" style="stop-color:#FF9415"/>
</linearGradient>
<path class="st35" d="M463.8,482.1l47.7,2.1l0.9-22.1l-20.6-1.3l-3,9.5l-21.3,2.2L463.8,482.1z"/>
<path class="st7" d="M462.6,481.1l-0.8,3.7l51.9,1l0.6-4L462.6,481.1z"/>
<linearGradient id="SVGID_3_" gradientUnits="userSpaceOnUse" x1="541.4899" y1="462.7614" x2="574.96" y2="462.7614">
	<stop  offset="0" style="stop-color:#FFD115"/>
	<stop  offset="1" style="stop-color:#FF9415"/>
</linearGradient>
<path class="st36" d="M541.5,477.1l33.5-8.1l-7.2-20.5l-16.7,3.9l0.1,10.1l-9.8,5.5L541.5,477.1z"/>
<path class="st7" d="M540.6,476.6l0.2,3.4l35.6-10.7l-1.4-2.9L540.6,476.6z"/>
<path class="st37" d="M560.4,307.7L549,329.3l-2.6-2.1l12.1-20.5L560.4,307.7z"/>
<path class="st38" d="M633.4,280l-26.2,6.9l2.8-9.5l23.5-1.6L633.4,280z"/>
<path class="st30" d="M633.4,280l-30.6,4.5l4.5-7.9l25.6-1.7L633.4,280z"/>
<path class="st25" d="M611.7,234.1c4.8-1.3,6.3-8.8,16.1,1.3c3.1,52,54.5,43,23,78.1c-27.9,10.4-29-5.4-29-5.4
	c-22.5-4.4-2.3-51-20.7-58.4C600,244.9,607,235.4,611.7,234.1z"/>
<circle class="st25" cx="642.3" cy="298.3" r="19.5"/>
<circle class="st25" cx="601" cy="239.8" r="12.3"/>
<linearGradient id="SVGID_4_" gradientUnits="userSpaceOnUse" x1="625.08" y1="247.9664" x2="636.06" y2="247.9664">
	<stop  offset="0" style="stop-color:#FFD115"/>
	<stop  offset="1" style="stop-color:#FF9415"/>
</linearGradient>
<circle class="st39" cx="630.6" cy="248" r="5.5"/>
<circle class="st24" cx="604.8" cy="255.4" r="3.7"/>
<path class="st40" d="M607.8,305.2l-28.3,86.5h-45.3v8.7h109l28.9-95.2H607.8z"/>
<path class="st41" d="M593.6,382.3H643"/>
<path class="st41" d="M597.4,370.1h49.3"/>
<path class="st41" d="M601.1,357.9h49.3"/>
<path class="st41" d="M604.8,345.6h49.4"/>
<path class="st41" d="M608.5,333.4h49.4"/>
<path class="st41" d="M612.2,321.2h49.6"/>
<path class="st42" d="M561.5,306.1l-15.6,22.1l-10.4-5.6l20-20.9L561.5,306.1z"/>
<path class="st2" d="M589,291.6h-43.7l-0.8-1.1h44.1L589,291.6z"/>
<path class="st2" d="M590,295.7h-42.9l-0.2-1.1h42.7L590,295.7z"/>
<path class="st2" d="M587.9,287.4h-44.1l-0.3-1.1h44.1L587.9,287.4z"/>
<path class="st43" d="M546,281.4h-3.7l-2.1-8.4h3.7L546,281.4z"/>
<path class="st44" d="M551.6,281.4h-3.7l-1.4-5.7h3.7L551.6,281.4z"/>
<path class="st43" d="M563.8,281.4h-3.7l-2.7-10.9h3.7L563.8,281.4z"/>
<path class="st44" d="M569.3,281.4h-3.7l-1-4.2h3.7L569.3,281.4z"/>
<path class="st43" d="M580.9,281.4h-3.7l-1.4-5.7h3.7L580.9,281.4z"/>
<path class="st44" d="M586.4,281.4h-3.7l-2.2-8.9h3.7L586.4,281.4z"/>
<ellipse transform="matrix(0.7744 -0.6327 0.6327 0.7744 -47.9398 400.9423)" class="st7" cx="538.2" cy="267.7" rx="0.5" ry="0.6"/>
<ellipse transform="matrix(0.7744 -0.6327 0.6327 0.7744 -47.2829 402.7968)" class="st7" cx="541.2" cy="267.7" rx="0.5" ry="0.6"/>
<ellipse transform="matrix(0.7744 -0.6327 0.6327 0.7744 -46.6174 404.6555)" class="st7" cx="544.1" cy="267.7" rx="0.5" ry="0.6"/>
<path class="st45" d="M534.7,293.4l0.1,1.4"/>
<path class="st45" d="M537.2,291.9l0.1,1.5"/>
<path class="st46" d="M594.7,284.6c1.1,2.3,0.3,4.4,3.2,7.1"/>
<path class="st46" d="M588.6,278.8l4.6,0.6"/>
<path class="st14" d="M223,291.3h5.5v23.9H223V291.3z"/>
<path class="st24" d="M305.7,262.6c0,0,5.2,13.8,10,14.2c1.2,0,2.3-0.4,3.2-1.1c5.3-3.4,22-7.1,22-7.1s-13.5,29.8-29.5,28.7
	c-15-1.4-23.5-28.4-23.5-28.4L305.7,262.6z"/>
<path class="st24" d="M332,283.6l9.3-15.6l4.7-5.3c1.5-1.6,1.6-3,0.5-3.9c0.9-1.4,0.2-3.6-1.1-3.6c1.2-1.5,0.4-4-1.2-4
	c2.5-3,3.2-3.6,4-4.5c1.1-1.5-0.3-2.8-1.8-2.1c-2.8,1.5-7.1,5.5-9,7.7c-0.2,0.2-0.4,0.2-0.6-0.2c-0.7-1.6,0.3-5-0.3-5.9
	c-0.6-0.8-1.7-1-2.5-0.4c-0.2,0.2-0.4,0.4-0.5,0.6c-0.8,1.1-1.6,5.1-1.9,8.4c-1.5,3-2.2,4.4-2.1,8.1c-0.4,2.3-1.5,4.4-3,6.1
	c-2.4,2.4-4.9,4.6-7.6,6.5"/>
<path class="st47" d="M344.6,251.4c-1,0.2-1.9,0.8-2.6,1.5"/>
<path class="st47" d="M345.5,255.3c-1,0.3-1.9,0.9-2.5,1.7"/>
<path class="st47" d="M346.7,258.9c-1,0.1-1.8,0.6-2.5,1.4"/>
<ellipse class="st2" cx="272.4" cy="497" rx="71.9" ry="17.3"/>
<path class="st24" d="M210.3,257.4l-2.1,17.1c-0.8,6.7,2.5,13.3,8.4,16.6l25.9,14.5l5.1-33.3L231,254.2L210.3,257.4z"/>
<path class="st24" d="M253,479.5l-12.1-1.5l-0.3-14.6l12.4,0.5L253,479.5z"/>
<path class="st24" d="M272.4,194.3l-2.5,36.7l-17.8,3.7l0.7-17.7c-1.4-6-1.4-11.6,0.7-16.6L272.4,194.3z"/>
<path class="st24" d="M259.7,192.6l18.3,1.1l0,0l-0.9,15.1c-0.5,7.9-7.3,13.9-15.2,13.4l-4-0.2l0,0L259.7,192.6L259.7,192.6z"/>
<path class="st48" d="M277.7,198.7c-2.4,1.1-4.8,1.9-7.3,2.5c-7.5,2.6-6.7,9.9-5.3,16.9c0,0-8.5,1.7-14.6-3.1
	c-3-2.6-7.1-10.2-4.8-18c1.3-4.1,5.2-7,9.1-8.1c3.3-5.1,6.1-7.6,12-8.4C282.2,179.1,289.5,192.1,277.7,198.7L277.7,198.7z"/>
<ellipse class="st24" cx="265" cy="209.8" rx="2.2" ry="2.8"/>
<path class="st24" d="M284,489.6l12.9-1.4v-12.4H284V489.6z"/>
<path class="st22" d="M226.3,330.4l2.7,34.7l3.7,99.9l34.3,0.9l-2-76.9L226.3,330.4z"/>
<path class="st22" d="M262.8,387.5l9.6,25.6l2.7,66.4l34.8-1.6l2.1-64.1l-18.7-81.5l-66.9-0.9l0.3,4.3L262.8,387.5z"/>
<linearGradient id="SVGID_5_" gradientUnits="userSpaceOnUse" x1="240.4256" y1="248.0104" x2="293.2883" y2="347.3345">
	<stop  offset="0" style="stop-color:#FFD115"/>
	<stop  offset="1" style="stop-color:#FF9415"/>
</linearGradient>
<path class="st49" d="M297.9,338l-75.5-4.8l0.1-58.3l-17.8-4l4.1-19.2c3.3-15.1,16.5-25.8,31.9-25.9l34.5,1.6
	c10.2,0.4,19.4,6.1,24.5,14.9l12.1,21.1l-23.7,15.4l5.2,35.8L297.9,338z"/>
<path class="st50" d="M248.6,356.4l15.6,34.5"/>
<path class="st51" d="M222.6,271.4l-18.4-5l-1.7,6.9l20.2,4.8L222.6,271.4z"/>
<path class="st52" d="M222.6,270.5l-16.8-4.6l-0.2,0.9l16.9,4.6L222.6,270.5z"/>
<path class="st7" d="M236.2,477.2l-1,16.5l4.4,0l41.7-5.5l-3.3-4.1l-13.2-1.5l-8.4-6.1L236.2,477.2z"/>
<path class="st52" d="M308.5,257.4l-24.2,15.3l1.6,2.4l23.1-16.9L308.5,257.4z"/>
<path class="st53" d="M294.5,337.8l-68-4.3l0.4,5.6l67.8-0.3L294.5,337.8z"/>
<path class="st51" d="M309.9,257.6l-25.6,18.7l5.2,8.4l24-21.2L309.9,257.6z"/>
<path class="st54" d="M235.1,492.1L282,488l0,2.3l-46.9,5L235.1,492.1z"/>
<path class="st7" d="M279.8,488.1l-1.1,14.2l5.1,0.7l40.2-5.9l-2.9-4l-13.6-1.3l-5.9-4L279.8,488.1z"/>
<path class="st54" d="M278.4,501.4l46.1-4.4l0.6,2.9l-47.3,5.1L278.4,501.4z"/>
<g>
	<path class="st55" d="M446.6,190.4l-28.2,1.1c-3.4,0.1-6.3-2.3-6.3-5.4l-0.5-25.3c-0.1-3.1,2.7-5.7,6.1-5.8l28.2-1.1
		c3.4-0.1,6.3,2.3,6.3,5.4l0.5,25.3C452.7,187.7,450,190.3,446.6,190.4z M417.7,156.2c-2.7,0.1-4.9,2.2-4.8,4.6l0.5,25.3
		c0,2.4,2.3,4.3,5,4.2l28.2-1.1c2.7-0.1,4.9-2.2,4.8-4.6l-0.5-25.3c0-2.4-2.3-4.3-5-4.2L417.7,156.2z"/>
	<path class="st55" d="M440.8,183.6l-17.1,0.7c-1.1,0-2-0.7-2-1.7l-0.3-18.8c0-1,0.9-1.8,1.9-1.8l12.4-0.5c0.4,0,0.9,0.1,1.2,0.3
		l4.8,3.2c0.5,0.3,0.8,0.8,0.8,1.3l0.3,15.4C442.8,182.7,441.9,183.6,440.8,183.6z M423.4,163.1c-0.4,0-0.7,0.3-0.6,0.6l0.3,18.8
		c0,0.3,0.3,0.6,0.7,0.6l17.1-0.7c0.4,0,0.7-0.3,0.6-0.6l-0.3-15.4c0-0.2-0.1-0.3-0.3-0.4l-4.8-3.2c-0.1-0.1-0.3-0.1-0.4-0.1
		L423.4,163.1z"/>
	<path class="st55" d="M437.3,169.6l-10.5,0.4c-0.4,0-0.7-0.2-0.7-0.6c0-0.3,0.3-0.6,0.6-0.6l10.5-0.4c0.4,0,0.7,0.2,0.7,0.6
		C438,169.3,437.7,169.6,437.3,169.6z"/>
	<path class="st55" d="M437.4,173.1l-10.5,0.4c-0.4,0-0.7-0.2-0.7-0.6c0-0.3,0.3-0.6,0.6-0.6l10.5-0.4c0.4,0,0.7,0.2,0.7,0.6
		C438,172.8,437.7,173.1,437.4,173.1z"/>
	<path class="st55" d="M437.4,176.7l-10.5,0.4c-0.4,0-0.7-0.2-0.7-0.6c0-0.3,0.3-0.6,0.6-0.6l10.5-0.4c0.4,0,0.7,0.2,0.7,0.6
		C438.1,176.4,437.8,176.6,437.4,176.7z"/>
	<path class="st55" d="M513.5,187.9l-28.2,1.1c-3.4,0.1-6.3-2.3-6.3-5.4l-0.5-25.3c-0.1-3.1,2.7-5.7,6.1-5.8l28.2-1.1
		c3.4-0.1,6.3,2.3,6.3,5.4l0.5,25.3C519.7,185.1,517,187.7,513.5,187.9z M484.7,153.7c-2.7,0.1-4.9,2.2-4.8,4.6l0.5,25.3
		c0,2.4,2.3,4.3,5,4.2l28.2-1.1c2.7-0.1,4.9-2.2,4.8-4.6l-0.5-25.3c0-2.4-2.3-4.3-5-4.2L484.7,153.7z"/>
	<path class="st55" d="M508.4,176.3L490,177c-1.1,0-2-0.7-2-1.7l-0.2-9.4c0-1,0.9-1.8,1.9-1.8l18.4-0.7c1.1,0,2,0.7,2,1.7l0.2,9.4
		C510.3,175.4,509.5,176.3,508.4,176.3z M489.8,165.2c-0.4,0-0.7,0.3-0.6,0.6l0.2,9.4c0,0.3,0.3,0.6,0.7,0.6l18.4-0.7
		c0.4,0,0.7-0.3,0.6-0.6l-0.2-9.4c0-0.3-0.3-0.6-0.7-0.6L489.8,165.2z"/>
	<path class="st55" d="M499.1,171.7c-0.4,0-0.7-0.1-1-0.2l-9.9-5.1c-0.3-0.2-0.4-0.5-0.2-0.8c0.2-0.3,0.6-0.4,0.9-0.2l9.9,5.1
		c0.2,0.1,0.5,0.1,0.7,0l9.7-5.9c0.3-0.2,0.7-0.1,0.9,0.2c0.2,0.3,0.1,0.6-0.2,0.8l-9.7,5.9C499.8,171.6,499.5,171.7,499.1,171.7z"
		/>
	<path class="st55" d="M379.6,193l-28.2,1.1c-3.4,0.1-6.3-2.3-6.3-5.4l-0.5-25.3c-0.1-3.1,2.7-5.7,6.1-5.8l28.2-1.1
		c3.4-0.1,6.3,2.3,6.3,5.4l0.5,25.3C385.8,190.3,383,192.9,379.6,193z M350.7,158.8c-2.7,0.1-4.9,2.2-4.8,4.6l0.5,25.3
		c0,2.4,2.3,4.3,5,4.2l28.2-1.1c2.7-0.1,4.9-2.2,4.8-4.6l-0.5-25.3c0-2.4-2.3-4.3-5-4.2L350.7,158.8z"/>
	<path class="st55" d="M374.5,181.4l-18.4,0.7c-1.1,0-2-0.7-2-1.7l-0.2-9.4c0-1,0.9-1.8,1.9-1.8l18.4-0.7c1.1,0,2,0.7,2,1.7l0.2,9.4
		C376.4,180.6,375.5,181.4,374.5,181.4z M355.9,170.4c-0.4,0-0.7,0.3-0.6,0.6l0.2,9.4c0,0.3,0.3,0.6,0.7,0.6l18.4-0.7
		c0.4,0,0.7-0.3,0.6-0.6l-0.2-9.4c0-0.3-0.3-0.6-0.7-0.6L355.9,170.4z"/>
	<path class="st55" d="M371.5,181.5l-13.2,0.5c-0.7,0-1.3-0.5-1.3-1.1c0-0.2,0.1-0.4,0.2-0.6l3.9-6.3c0.4-0.6,1.2-0.8,1.8-0.5
		c0.2,0.1,0.4,0.2,0.5,0.4l2.6,3.9l1.4-2.4c0.4-0.6,1.2-0.8,1.8-0.5c0.2,0.1,0.4,0.2,0.5,0.4l3,4.4c0.4,0.5,0.2,1.3-0.5,1.6
		C372,181.5,371.8,181.5,371.5,181.5L371.5,181.5z M371.5,180.4L371.5,180.4l-3-4.4l-2,3.3c-0.1,0.2-0.3,0.3-0.6,0.3l0,0
		c-0.2,0-0.5-0.1-0.6-0.3l-3.2-4.8l-3.9,6.3L371.5,180.4z"/>
	<path class="st55" d="M372.3,170.9c0.7,0,1.3,0.5,1.3,1.1s-0.6,1.2-1.3,1.2c-0.7,0-1.3-0.5-1.3-1.1S371.6,170.9,372.3,170.9z"/>
</g>
<path class="st14" d="M557.9,128l-199.6,7.6c-6,0.2-10.9-5-11.1-11.6l-1-47.4c-0.1-6.6,4.6-12.2,10.6-12.5l199.6-7.6
	c6-0.2,10.9,5,11.1,11.6l1,47.4C568.6,122.2,563.9,127.8,557.9,128z"/>
<path class="st8" d="M557.9,128.4L358.3,136c-6.2,0.2-11.3-5.1-11.4-12l-1-47.4c-0.1-6.8,4.7-12.6,10.9-12.8l199.6-7.6
	c6.2-0.2,11.3,5.1,11.4,12l1,47.4C568.9,122.4,564.1,128.1,557.9,128.4z"/>
<path class="st56" d="M544.8,120.5L371,127.2c-6.9,0.3-12.6-5.7-12.8-13.4l-0.6-28.5c-0.2-7.6,5.3-14.1,12.2-14.3l173.8-6.7
	c6.9-0.3,12.6,5.7,12.8,13.4l0.6,28.5C557.1,113.8,551.7,120.2,544.8,120.5z"/>
<path class="st13" d="M413.9,79.6c7.2-0.3,13.1,5.9,13.3,13.9c0.2,7.9-5.5,14.6-12.6,14.9c-7.2,0.3-13.1-5.9-13.3-13.9
	S406.8,79.9,413.9,79.6z"/>
<path class="st22" d="M525.2,118.3L506.6,102l-18.3-16.1c-1-0.9-2.4-0.8-3.4,0.1l-17.5,17.5l-4.3,4.3l-6.7-5.9l-20.5-17.9
	c-1-0.9-2.4-0.8-3.4,0.1l-19.6,19.5L393,123.6c-0.3,0.3-0.3,0.7-0.1,1c0.1,0.2,0.3,0.2,0.5,0.2l41.6-1.7l13.2-0.5l-0.1,0.1l39.3-1.6
	l37.5-1.5c0.4,0,0.6-0.4,0.6-0.8C525.5,118.7,525.4,118.5,525.2,118.3z"/>
<path class="st14" d="M294.9,143.6l-28.2,1.1c-3.4,0.1-6.3-2.9-6.4-6.7l-0.7-31.4c-0.1-3.8,2.6-7,6.1-7.2l28.2-1.1
	c3.4-0.1,6.3,2.9,6.4,6.7l0.7,31.4C301.1,140.2,298.4,143.4,294.9,143.6z"/>
<path class="st57" d="M294.9,143.6l-28.2,1.1c-3.4,0.1-6.3-2.9-6.4-6.7l-0.7-31.4c-0.1-3.8,2.6-7,6.1-7.2l28.2-1.1
	c3.4-0.1,6.3,2.9,6.4,6.7l0.7,31.4C301.1,140.2,298.4,143.4,294.9,143.6z M265.7,100.9c-2.7,0.1-4.9,2.6-4.8,5.7l0.7,31.4
	c0.1,3,2.3,5.4,5,5.3l28.2-1.1c2.7-0.1,4.9-2.6,4.8-5.7l-0.7-31.4c-0.1-3-2.3-5.4-5-5.3L265.7,100.9z"/>
<path class="st22" d="M289.7,131l-18.4,0.7c-1.1,0-2-0.9-2-2.1l-0.3-15.3c0-1.2,0.8-2.2,1.9-2.3l5.2-0.2c0.7,0,1.3,0.3,1.7,1
	l1.5,2.6l10.1-0.4c1.1,0,2,0.9,2,2.1l0.3,11.7C291.7,129.9,290.8,131,289.7,131z"/>
</svg>
